<?xml version="1.0" standalone="no"?>
<!DOCTYPE svg PUBLIC "-//W3C//DTD SVG 1.1//EN" "http://www.w3.org/Graphics/SVG/1.1/DTD/svg11.dtd" >
<svg xmlns="http://www.w3.org/2000/svg">
<metadata>Generated by IcoMoon</metadata>
<defs>
<font id="icomoon" horiz-adv-x="1024">
<font-face units-per-em="1024" ascent="960" descent="-64" />
<missing-glyph horiz-adv-x="1024" />
<glyph unicode="&#x20;" horiz-adv-x="512" d="" />
<glyph unicode="&#xe900;" glyph-name="add" d="M1007.484 464.516h-478.968v478.968c0 9.121-7.395 16.516-16.516 16.516s-16.516-7.395-16.516-16.516v-478.968h-478.968c-9.121 0-16.516-7.395-16.516-16.516s7.395-16.516 16.516-16.516h478.968v-478.968c0-9.121 7.395-16.516 16.516-16.516s16.516 7.395 16.516 16.516v478.968h478.968c9.121 0 16.516 7.395 16.516 16.516s-7.395 16.516-16.516 16.516z" />
<glyph unicode="&#xe901;" glyph-name="call" d="M997.13 170.039l-39.776 26.5c89.705 157.777 88.703 351.36-2.63 508.199s-259.202 253.252-440.697 253.102c-9.425 0-17.063-7.639-17.063-17.063s7.639-17.063 17.063-17.063c168.891 0.126 325.168-89.367 410.535-235.097 85.365-145.728 87.001-325.81 4.295-473.066l-139.055 92.71c-26.304 17.391-61.555 11.666-81.004-13.156l-60.305-77.624c-7.765-10.224-21.861-13.19-33.087-6.963l-11.484 6.331c-38.070 20.751-85.439 46.585-180.879 142.059s-121.326 142.879-142.077 180.879l-6.297 11.484c-6.321 11.222-3.409 25.386 6.825 33.207l77.572 60.355c24.82 19.447 30.553 54.694 13.174 81.004l-138.219 207.261c-17.813 26.79-53.548 34.833-81.122 18.257l-86.669-52.062c-27.232-16.010-47.211-41.938-55.748-72.351-31.209-113.715-7.731-309.97 281.37-599.105 125.933-125.933 234.205-201.356 325.754-244.018-140.907-31.837-288.643 2.242-401.368 92.58-112.725 90.341-178.166 227.106-177.788 371.563 0 9.425-7.639 17.063-17.063 17.063s-17.063-7.639-17.063-17.063c0.264-281.422 228.284-509.518 509.706-509.876 52.722-0.018 105.122 8.239 155.283 24.47 45.255-16.903 93.088-25.874 141.393-26.518 27.082-0.116 54.058 3.407 80.202 10.476 30.419 8.527 56.352 28.508 72.351 55.748l52.114 86.617c16.6 27.582 8.561 63.339-18.243 81.16zM986.038 106.443l-51.994-86.669c-11.496-19.695-30.174-34.171-52.114-40.39-49.639-13.652-116.873-15.358-203.268 15.784-1.37 0.768-2.842 1.342-4.369 1.706-95.56 35.477-214.206 111.088-358.347 255.176-277.461 277.447-301.367 460.87-272.546 565.864 6.231 21.933 20.705 40.608 40.39 52.114l86.669 51.994c11.964 7.199 27.474 3.709 35.203-7.917l138.102-207.243c7.547-11.412 5.067-26.708-5.699-35.153l-77.59-60.355c-23.612-18.055-30.355-50.724-15.818-76.653l6.161-11.194c21.809-39.998 48.923-89.757 147.912-188.73 98.989-98.971 148.732-126.087 188.712-147.894l11.21-6.177c25.926-14.536 58.597-7.795 76.653 15.818l60.355 77.59c8.447 10.76 23.736 13.238 35.153 5.699l207.243-138.219c11.628-7.699 15.146-23.183 7.983-35.151z" />
<glyph unicode="&#xe902;" glyph-name="cctv" d="M790.494 960h-558.296c-89.898 0-162.38-74.048-162.38-163.946v-558.298c0-89.896 72.482-162.12 162.38-162.12h140.164v-139.636h46.546v139.636h186.182v-139.636h46.546v139.636h138.858c89.898 0 163.688 72.224 163.688 162.12v558.298c0 89.898-73.79 163.946-163.688 163.946zM907.636 237.756c0-64.23-52.908-115.574-117.142-115.574h-558.298c-64.234 0-115.836 51.344-115.836 115.574v558.298c0 64.232 51.602 117.4 115.836 117.4h558.296c64.234 0 117.142-53.168 117.142-117.4v-558.298zM511.346 447.088c-76.994 0-139.636-62.64-139.636-139.636 0-76.998 62.642-139.636 139.636-139.636s139.636 62.64 139.636 139.636c0.002 76.996-62.642 139.636-139.636 139.636zM511.346 214.362c-51.33 0-93.090 41.762-93.090 93.090 0 51.33 41.762 93.090 93.090 93.090 51.33 0 93.090-41.762 93.090-93.090 0.002-51.33-41.76-93.090-93.090-93.090z" />
<glyph unicode="&#xe903;" glyph-name="clock" d="M512 959.997c-282.319 0-512-229.681-512-512s229.681-511.997 512-511.997 512 229.681 512 511.997-229.685 512-512 512zM512-12.965c-254.18 0-460.968 206.785-460.968 460.961s206.788 460.968 460.968 460.968 460.968-206.788 460.968-460.965-206.792-460.965-460.968-460.965zM486.484 473.513h-203.604v-51.032h254.636v388.224h-51.032z" />
<glyph unicode="&#xe904;" glyph-name="comment-outline" d="M80.455 960c-44.573 0-80.455-35.882-80.455-80.455v-943.545l219.429 219.429h724.116c44.573 0 80.455 35.882 80.455 80.455v643.661c0 44.573-35.882 80.455-80.455 80.455h-863.089zM109.714 886.857h804.571c20.261 0 36.571-16.311 36.571-36.571v-585.143c0-20.261-16.311-36.571-36.571-36.571h-731.429l-109.714-109.714v731.429c0 20.261 16.311 36.571 36.571 36.571z" />
<glyph unicode="&#xe905;" glyph-name="draw-check-mark" d="M412.705-38.96c33.113-33.515 106.863-22.406 114.804 30.293 49.405 327.181 296.62 603.201 483.7 863.294 51.872 72.075-67.4 140.544-118.598 69.326-170.957-237.652-386.431-487.722-470.727-776.101-96.33 98.448-193.050 195.964-301.093 282.472-68.424 54.808-166.301-41.75-97.139-97.135 140.767-112.752 262.417-244.234 389.054-372.15z" />
<glyph unicode="&#xe906;" glyph-name="email" d="M1023.047 324.463l-63.296 358.203c-5.907 33.485-37.922 55.923-71.438 50l-507.61-89.686c-31.531-5.576-52.933-34.368-50.403-65.637-0.345-2.597 63.731-364.019 63.731-364.019 2.845-16.219 11.861-30.344 25.376-39.797 10.485-7.33 22.688-11.141 35.22-11.141 3.608 0 7.233 0.312 10.843 0.952l507.578 89.688c16.22 2.859 30.344 11.859 39.797 25.374 9.438 13.485 13.063 29.845 10.203 46.062zM980.283 382.642l-170.675 131.29c48.045 51.734 98.203 108.562 123.24 137.154l47.435-268.443zM386.282 611.479l507.594 89.688c1.75 0.296 3.469 0.453 5.171 0.453 9.813 0 18.784-4.974 24.248-12.797-14.915-17.158-149.998-172.109-214.934-232.954-17-15.89-41.642-19.89-62.688-10.109-76.642 35.41-243.515 119.134-283.63 139.309 0.478 5.037 2.128 9.92 5.115 14.192 4.546 6.499 11.342 10.827 19.125 12.218zM367.653 546.453c37.587-18.854 105.843-52.971 168.2-83.496l-120.365-187.234-47.835 270.73zM986.626 296.744c-4.548-6.499-11.328-10.827-19.127-12.203l-507.593-89.702c-7.797-1.344-15.687 0.374-22.172 4.922-6.484 4.531-10.829 11.328-12.203 19.125l-1.843 10.427 141.125 219.526c25.627-12.437 49.102-23.666 67.437-32.141 12-5.547 24.75-8.25 37.36-8.25 22.062 0 43.765 8.266 60.624 24.078 16.078 15.059 36.078 35.448 57.381 57.947l200.925-154.558 3.008-17.014c1.374-7.797-0.376-15.672-4.921-22.157zM304.125 482.12c-1.531 8.702-9.859 14.578-18.531 12.968l-272.374-48.125c-8.704-1.531-14.517-9.829-12.97-18.531 1.36-7.766 8.11-13.219 15.734-13.219 0.922 0 1.859 0.078 2.797 0.25l272.376 48.126c8.702 1.531 14.515 9.827 12.968 18.531zM320.469 389.573c-1.531 8.702-9.843 14.547-18.531 12.968l-163.423-28.875c-8.702-1.531-14.515-9.827-12.968-18.531 1.358-7.765 8.109-13.218 15.735-13.218 0.921 0 1.859 0.077 2.796 0.25l163.421 28.875c8.704 1.531 14.517 9.827 12.97 18.531zM318.203 310.448l-108.937-19.251c-8.703-1.531-14.516-9.827-12.968-18.531 1.358-7.765 8.109-13.218 15.733-13.218 0.923 0 1.861 0.078 2.798 0.25l108.936 19.25c8.704 1.531 14.517 9.829 12.97 18.531-1.515 8.704-9.875 14.594-18.531 12.97z" />
<glyph unicode="&#xe907;" glyph-name="energy-alternative-energy-source" d="M164.505 7.528v349.332c-47.315-75.090-85.59-123.632-97.406-116.81-13.938 8.046 20.395 86.423 76.382 186.824-2.584 8.919-2.206 18.66 1.532 27.672-55.113 99.133-88.715 176.202-74.903 184.179 13.934 8.046 64.626-60.843 123.563-159.485 3.767-0.922 7.473-2.357 11.004-4.397 4.949-2.857 9.086-6.571 12.345-10.846 113.352-1.849 196.853-11.276 196.853-27.226 0-16.087-85.029-25.547-199.961-27.266-2.885-2.999-6.144-5.506-9.679-7.493v-381.986c97.061 28.53 200.453 43.967 307.766 43.967 0.077 0 0.15 0 0.228 0v556.81c8.318-3.608 17.473-5.636 27.104-5.636 25.726 0 48.161 14.304 59.815 35.361 73.224-132.844 117.167-234.98 98.443-245.785-16.177-9.342-68.011 55.955-132.393 157.615v-499.637c86.398-4.129 169.928-18.245 249.268-41.123v287.656c-3.393-1.548-7.27-3.291-9.017-3.978-68.035-26.77-119.142-41.249-123.254-31.48-4.393 10.423 48.23 39.786 122.287 72.265 2.475 5.876 6.709 10.553 11.878 13.641 0.033 0.020 0.057 0.049 0.089 0.069 11.207 79.198 25.137 136.936 36.271 135.538 11.24-1.414 10.338-61.883 1.394-142.483 3.812-4.815 6.026-10.78 6.258-17.018 62.814-49.189 105.7-89.999 98.926-98.93-6.298-8.31-55.312 19.797-113.937 61.757v-286.437c62.562-20.11 122.336-45.719 178.64-76.191h-1024c52.049 28.16 107.069 52.163 164.507 71.518zM483.848 723.234c-152.784-2.926-264.274-15.953-264.274-37.681 0-21.593 110.158-34.597 261.531-37.628-6.368 10.378-10.106 22.536-10.106 35.576 0 14.828 4.799 28.522 12.849 39.733zM601.934 710.803c74.053 134.067 118.687 237.435 99.84 248.313-18.68 10.789-84.915-77.93-163.134-207.316 0.232 0.004 0.455 0.037 0.691 0.037 27.973-0.004 52.045-16.916 62.602-41.033zM583.664 683.501c0 24.446-19.887 44.333-44.333 44.333s-44.333-19.887-44.333-44.333 19.887-44.333 44.333-44.333 44.333 19.887 44.333 44.333z" />
<glyph unicode="&#xe908;" glyph-name="fuel" d="M233.74 960h-178.088c-12.294 0-22.26-9.968-22.26-22.26v-111.304c0-12.294 9.968-22.26 22.26-22.26h178.086c12.294 0 22.26 9.968 22.26 22.26v111.304c0.002 12.292-9.966 22.26-22.258 22.26zM211.478 848.696h-133.564v66.782h133.566v-66.782zM857.044 601.818v158.032c0 12.294-12.548 22.062-24.842 22.062h-113.196c-10.63 61.218-65.608 111.304-131.674 111.304s-121.044-50.086-131.674-111.304h-402.588c-12.294 0-19.68-9.77-19.68-22.062v-801.392c0-12.292 7.386-22.458 19.68-22.458h779.13c12.294 0 24.842 10.166 24.842 22.458v202.556c72.348 15.002 133.566 106.4 133.566 220.402s-61.216 205.4-133.564 220.402zM587.332 848.696c41.4 0 76.188-27.826 86.114-66.782h-172.228c9.924 38.956 44.714 66.782 86.114 66.782zM812.522-19.478h-734.608v756.87h734.608v-756.87zM857.044 207.082v348.668c50.088-17.026 89.044-89.956 89.044-174.334-0.002-84.378-38.958-157.308-89.044-174.334zM356.95 420.58c-123.64 105.978-126.934 149.576-126.88 154.294 2.956 9.076-0.206 19.218-8.164 24.946-8.848 6.424-21.054 5.402-28.75-2.316-7.956-7.946-74.392-84.958 40-336.598 52.488-115.488 108.512-181.554 166.522-196.39 8.642-2.206 16.598-3.088 23.794-3.088 25.662 0 41.51 11.184 43.652 12.794 4.088 3.066 7 7.446 8.24 12.402 1.956 7.814 45.968 193.052-118.414 333.956zM434.124 107.35c-5.086-1.36-13.086-2.326-23.424 0.294-24.924 6.38-75.87 37.152-137.022 171.674-51.652 113.642-63.272 186.044-62.316 229.664 20.652-30.608 56.392-70.598 116.608-122.206 124.438-106.664 112.448-241.762 106.154-279.426zM378.974 665.644c-6.206 5.186-14.74 6.544-22.24 3.684-7.532-2.902-12.902-9.642-14.044-17.63l-22.26-155.826c-1.74-12.174 6.718-23.446 18.88-25.184 12.088-1.63 23.446 6.706 25.184 18.88l16.218 113.49c38.152-39.402 85.598-101.946 73.718-149.456-2.978-11.934 4.272-24.022 16.196-27 1.816-0.456 3.63-0.664 5.424-0.664 9.968 0 19.044 6.75 21.576 16.858 24.922 99.728-103.882 210.544-118.652 222.848zM608.452 477.502c-2.576 7.728-9.184 13.434-17.206 14.87-8.066 1.51-16.218-1.63-21.294-8.010l-89.044-111.304c-7.686-9.598-6.13-23.608 3.478-31.282 9.576-7.674 23.598-6.13 31.282 3.478l60.858 76.066c11.848-61.402 21.446-175.858-49.456-246.772-8.696-8.696-8.696-22.782 0-31.478 4.348-4.348 10.044-6.522 15.74-6.522s11.392 2.174 15.74 6.522c119.662 119.65 52.804 325.716 49.902 334.432z" />
<glyph unicode="&#xe909;" glyph-name="hydro-power" d="M996.145 101.723c-6.742-5.478-12.646-11.4-18.364-17.1-16.282-16.282-29.131-29.149-56.199-29.149s-39.917 12.868-56.199 29.149c-17.426 17.426-39.133 39.115-80.331 39.115s-62.889-21.692-80.331-39.115c-16.282-16.282-29.131-29.149-56.199-29.149s-39.917 12.868-56.199 29.149c-17.426 17.426-39.133 39.115-80.331 39.115s-62.889-21.692-80.331-39.115c-16.282-16.282-29.131-29.149-56.199-29.149s-39.917 12.868-56.199 29.149c-17.426 17.426-39.133 39.115-80.331 39.115s-62.897-21.692-80.339-39.115c-16.282-16.282-29.131-29.149-56.199-29.149s-39.917 12.868-56.199 29.149c-5.718 5.7-11.622 11.606-18.38 17.084-7.304 5.956-18.074 4.812-23.996-2.492-5.94-7.322-4.83-18.074 2.492-24.012 5.394-4.37 10.428-9.404 15.752-14.728 17.442-17.426 39.133-39.133 80.331-39.133s62.907 21.708 80.331 39.133c16.282 16.282 29.131 29.131 56.199 29.131s39.917-12.852 56.199-29.131c17.442-17.426 39.133-39.133 80.331-39.133s62.907 21.708 80.331 39.133c16.282 16.282 29.131 29.131 56.199 29.131s39.917-12.852 56.199-29.131c17.442-17.426 39.133-39.133 80.331-39.133s62.907 21.708 80.331 39.133c16.282 16.282 29.131 29.131 56.199 29.131s39.917-12.852 56.199-29.131c17.442-17.426 39.133-39.133 80.331-39.133s62.907 21.708 80.331 39.133c5.342 5.342 10.394 10.376 15.77 14.762 7.322 5.956 8.414 16.708 2.474 24.012-5.912 7.304-16.648 8.414-24.004 2.474zM108.098 380.28c4.266-25.72 10.974-50.891 19.968-75.109l-78.829-45.515c-3.926-2.252-6.792-5.99-7.954-10.36-1.16-4.37-0.564-9.028 1.706-12.954 31.061-53.777 97.926-74.273 153.255-48.861 7.868-9.216 18.040-20.276 30.377-33.075 6.57-6.792 17.39-6.964 24.15-0.41 6.776 6.554 6.964 17.356 0.426 24.132-16.76 17.34-29.559 31.641-37.033 41.385-5.206 6.758-14.644 8.636-22.050 4.386l-2.986-1.706c-35.651-20.6-80.229-12.442-106.562 17.288l75.281 43.451c7.442 4.284 10.53 13.414 7.254 21.334-12.51 30.121-20.992 61.985-25.276 94.752-1.11 8.5-8.362 14.848-16.93 14.848h-3.43c-41.215 0-75.673 29.371-83.609 68.265h87.038c8.568 0 15.82 6.366 16.93 14.866 4.284 32.767 12.766 64.631 25.276 94.752 3.276 7.918 0.188 17.050-7.254 21.334l-2.834 1.638c-19.746 11.384-33.877 29.781-39.781 51.797-4.404 16.418-3.822 33.381 1.468 49.133l75.365-43.519c7.406-4.3 16.844-2.424 22.084 4.37 20.036 26.060 43.365 49.389 69.357 69.357 6.792 5.206 8.67 14.626 4.386 22.050l-1.69 2.97c-11.418 19.73-14.456 42.733-8.55 64.749 4.404 16.418 13.364 30.821 25.822 41.813l43.485-75.315c4.3-7.424 13.482-10.496 21.3-7.202 30.121 12.492 62.003 20.992 94.752 25.258 8.5 1.11 14.866 8.346 14.866 16.914v3.43c0 22.784 8.874 44.219 24.986 60.347 12.014 12.014 26.982 20.002 43.263 23.296v-87.072c0-8.568 6.366-15.804 14.864-16.914 32.733-4.266 64.613-12.766 94.752-25.276 7.816-3.242 16.998-0.204 21.3 7.22l1.672 2.868c11.384 19.746 29.781 33.859 51.797 39.765 16.452 4.404 33.415 3.84 49.133-1.45l-43.519-75.383c-4.3-7.424-2.424-16.88 4.37-22.084 25.992-19.968 49.321-43.297 69.357-69.357 5.24-6.81 14.678-8.686 22.084-4.37l2.936 1.69c19.746 11.4 42.769 14.438 64.749 8.534 16.418-4.386 30.821-13.364 41.813-25.822l-75.281-43.451c-7.442-4.284-10.53-13.414-7.254-21.334 12.51-30.139 21.010-62.019 25.276-94.752 1.092-8.5 8.346-14.866 16.914-14.866h3.464c22.784 0 44.201-8.874 60.313-24.986 12.016-12.014 20.002-26.982 23.314-43.263h-87.090c-8.568 0-15.82-6.366-16.914-14.866-4.284-32.749-12.782-64.631-25.292-94.736-3.276-7.936-0.17-17.050 7.254-21.334l2.85-1.656c35.685-20.582 50.891-63.249 38.297-100.914l-75.417 43.537c-7.39 4.266-16.844 2.39-22.050-4.386-8.738-11.4-18.244-22.392-28.228-32.699-6.554-6.776-6.382-17.578 0.41-24.132 6.742-6.536 17.544-6.4 24.116 0.392 7.406 7.646 14.592 15.668 21.418 23.928l78.949-45.601c2.628-1.502 5.58-2.286 8.534-2.286 1.484 0 2.97 0.204 4.42 0.58 4.386 1.178 8.106 4.044 10.376 7.97 30.975 53.691 15.412 121.7-34.099 156.977 9.062 24.218 15.77 49.373 20.088 75.093l91.134-0.018c4.54 0 8.874 1.81 12.066 5 3.208 3.208 5 7.544 5 12.084-0.018 31.913-12.442 61.917-35.019 84.479-19.866 19.866-45.481 31.863-73.095 34.439-4.266 25.72-10.956 50.875-19.968 75.109l78.829 45.515c3.926 2.252 6.792 5.99 7.954 10.36 1.178 4.37 0.564 9.028-1.69 12.954-15.974 27.63-41.743 47.411-72.549 55.671-27.152 7.254-55.347 4.846-80.553-6.742-16.538 20.020-34.935 38.433-54.903 54.971l45.585 78.933c4.71 8.158 1.912 18.602-6.246 23.314-27.666 15.958-59.835 20.19-90.674 11.93-27.102-7.27-50.277-23.416-66.303-45.993-24.234 9.046-49.389 15.77-75.109 20.070v91.118c0 9.42-7.628 17.066-17.066 17.066h-0.018c-31.897 0-61.899-12.424-84.445-34.985-19.866-19.866-31.863-45.499-34.457-73.095-25.72-4.284-50.891-10.974-75.109-19.968l-45.499 78.813c-4.728 8.174-15.206 10.956-23.312 6.246-27.63-15.958-47.411-41.709-55.671-72.549-7.27-27.136-4.846-55.347 6.724-80.537-19.984-16.504-38.381-34.901-54.971-54.903l-78.915 45.567c-8.174 4.728-18.602 1.928-23.314-6.246-15.958-27.63-20.206-59.817-11.93-90.64 7.254-27.102 23.398-50.277 45.993-66.337-9.046-24.218-15.77-49.373-20.088-75.093h-91.116c-9.438 0-17.066-7.628-17.066-17.066 0-62.035 47.529-113.182 108.098-118.918zM996.145 16.393c-6.742-5.478-12.646-11.4-18.364-17.118-16.282-16.264-29.131-29.131-56.199-29.131s-39.917 12.868-56.199 29.131c-17.426 17.442-39.133 39.133-80.331 39.133s-62.889-21.692-80.331-39.133c-16.282-16.264-29.131-29.131-56.199-29.131s-39.917 12.868-56.199 29.131c-17.426 17.442-39.133 39.133-80.331 39.133s-62.889-21.692-80.331-39.133c-16.282-16.264-29.131-29.131-56.199-29.131s-39.917 12.868-56.199 29.131c-17.426 17.442-39.133 39.133-80.331 39.133s-62.897-21.692-80.339-39.133c-16.282-16.264-29.131-29.131-56.199-29.131s-39.917 12.868-56.199 29.149c-5.718 5.7-11.622 11.606-18.38 17.084-7.304 5.956-18.074 4.796-23.996-2.492-5.94-7.322-4.83-18.074 2.492-24.012 5.394-4.37 10.428-9.404 15.752-14.728 17.442-17.426 39.133-39.133 80.331-39.133s62.907 21.708 80.331 39.133c16.282 16.282 29.131 29.131 56.199 29.131s39.917-12.852 56.199-29.131c17.442-17.426 39.133-39.133 80.331-39.133s62.907 21.708 80.331 39.133c16.282 16.282 29.131 29.131 56.199 29.131s39.917-12.852 56.199-29.131c17.442-17.426 39.133-39.133 80.331-39.133s62.907 21.708 80.331 39.133c16.282 16.282 29.131 29.131 56.199 29.131s39.917-12.852 56.199-29.131c17.442-17.426 39.133-39.133 80.331-39.133s62.907 21.708 80.331 39.133c5.342 5.342 10.394 10.376 15.77 14.762 7.322 5.956 8.414 16.708 2.474 24.012-5.912 7.304-16.648 8.43-24.004 2.474zM453.060 245.065c2.458-1.246 5.102-1.86 7.732-1.86 4.932 0 9.78 2.15 13.124 6.144l170.663 204.796c4.232 5.086 5.154 12.168 2.322 18.176-2.798 5.99-8.824 9.814-15.446 9.814h-81.577l30.053 150.253c1.57 7.902-2.578 15.804-9.95 19.012-7.372 3.174-15.992 0.82-20.668-5.752l-170.663-238.912c-3.72-5.206-4.216-12.050-1.298-17.732s8.772-9.268 15.172-9.268h80.537l-28.825-115.318c-1.928-7.714 1.742-15.754 8.824-19.354zM425.687 413.868l105.18 147.249-18.534-92.686c-1.006-5.018 0.29-10.224 3.532-14.166 3.242-3.96 8.072-6.264 13.192-6.264h65.961l-99.582-119.482 16.042 64.153c1.28 5.102 0.136 10.496-3.106 14.644-3.226 4.13-8.192 6.554-13.448 6.554h-69.237z" />
<glyph unicode="&#xe90a;" glyph-name="hydro-power-water" d="M143.109 776.771h734.771v-31.312h-734.771v31.312zM987.966 190.374c-11.116 9.98-24.714 22.122-48.652 24.452v622.478h52.206v-600.134h31.312v631.446h-114.831v-656.704c-15.24-4.768-25.34-13.806-33.952-21.538-10.906-9.792-18.784-16.868-36.036-16.868-5.054 0-9.286 0.622-13.044 1.726l-51.416 298.861h79.285v31.312h-84.673l-2.714 15.768c-5.296 30.778-31.806 53.116-63.036 53.116s-57.74-22.34-63.036-53.116l-2.714-15.768h-25.056v118.983h181.605v-88.715h31.312v120.027h-244.228v-150.295h-30.142v-31.312h81.121l-45.336-263.525c-7.482 2.852-16.256 4.686-26.882 4.686-29.242 0-44.606-13.796-56.95-24.882-10.904-9.792-18.78-16.866-36.028-16.866-13.868 0-21.682 4.578-29.88 11.462l-49.742 289.125h82.291v31.312h-30.392v150.295h-244.232v-120.027h31.312v88.715h181.605v-118.983h-25.974l-2.712 15.768c-5.296 30.778-31.806 53.116-63.036 53.116s-57.74-22.34-63.036-53.116l-2.712-15.768h-85.583v-31.312h80.203l-44.69-259.769c-3.84 0.578-7.928 0.928-12.37 0.928-29.242 0-44.606-13.796-56.95-24.88-5.356-4.81-9.986-8.958-15.35-11.94v690.184h-114.833v-600.134h31.312v568.822h52.208v-662.696c-10.418 2.34-17.022 8.244-25.398 15.764-12.342 11.084-27.706 24.882-56.948 24.882v-31.312c17.246 0 25.124-7.074 36.028-16.866 12.344-11.084 27.706-24.882 56.948-24.882s44.608 13.796 56.952 24.882c10.904 9.792 18.782 16.866 36.030 16.866s25.128-7.074 36.032-16.868c12.344-11.084 27.708-24.88 56.95-24.88s44.606 13.796 56.95 24.882c10.904 9.792 18.782 16.866 36.030 16.866 16.224 0 24.16-6.26 34.116-15.15l0.184-1.070 0.848 0.146c0.294-0.264 0.582-0.522 0.88-0.792 12.344-11.084 27.708-24.882 56.952-24.882 29.242 0 44.606 13.796 56.95 24.882 10.904 9.792 18.782 16.866 36.028 16.866 17.248 0 25.128-7.074 36.032-16.868 12.344-11.084 27.706-24.88 56.948-24.88 29.244 0 44.608 13.796 56.952 24.88 10.906 9.792 18.784 16.868 36.032 16.868s25.128-7.074 36.032-16.868c12.344-11.084 27.708-24.88 56.95-24.88 29.244 0 44.61 13.796 56.956 24.88 10.906 9.792 18.786 16.868 36.040 16.868 17.252 0 25.132-7.076 36.040-16.868 12.344-11.084 27.71-24.88 56.958-24.88v31.312c-17.242 0-25.122 7.076-36.028 16.868zM373.094 215.253c-29.242 0-44.606-13.796-56.95-24.882-10.904-9.792-18.782-16.866-36.030-16.866s-25.128 7.074-36.032 16.866c-4.396 3.95-9.192 8.232-14.846 12.124l53.914 313.369c2.702 15.71 16.234 27.114 32.178 27.114 15.942 0 29.474-11.404 32.178-27.114l52.528-305.313c-7.498 2.858-16.29 4.702-26.94 4.702zM745.027 215.253c-29.244 0-44.608-13.796-56.952-24.88-10.904-9.792-18.784-16.868-36.032-16.868-17.246 0-25.126 7.074-36.028 16.866-0.504 0.452-1.022 0.914-1.536 1.376l55.762 324.118c2.702 15.71 16.234 27.114 32.178 27.114 15.942 0 29.474-11.404 32.178-27.114l54.102-314.461c-10.45 7.522-23.874 13.85-43.672 13.85zM848.487 75.563c-12.344 11.086-27.708 24.882-56.952 24.882s-44.608-13.796-56.952-24.88c-10.904-9.792-18.784-16.868-36.032-16.868s-25.126 7.074-36.030 16.866c-12.344 11.084-27.708 24.882-56.95 24.882s-44.606-13.796-56.95-24.882c-10.904-9.792-18.78-16.866-36.028-16.866s-25.128 7.074-36.032 16.868c-12.344 11.086-27.708 24.88-56.952 24.88-29.242 0-44.606-13.796-56.95-24.882-10.904-9.792-18.782-16.866-36.028-16.866-17.248 0-25.128 7.074-36.032 16.868-12.344 11.086-27.708 24.88-56.95 24.88-29.244 0-44.608-13.796-56.952-24.882-10.904-9.792-18.782-16.866-36.030-16.866v-31.312c29.242 0 44.606 13.796 56.95 24.88 10.904 9.792 18.782 16.868 36.030 16.868s25.128-7.074 36.032-16.866c12.344-11.086 27.708-24.882 56.952-24.882 29.242 0 44.606 13.796 56.95 24.882 10.904 9.792 18.782 16.866 36.030 16.866s25.128-7.074 36.032-16.868c12.344-11.084 27.708-24.88 56.952-24.88 29.242 0 44.606 13.796 56.95 24.882 10.904 9.792 18.782 16.866 36.028 16.866 17.248 0 25.126-7.074 36.030-16.866 12.344-11.086 27.708-24.882 56.95-24.882 29.244 0 44.608 13.796 56.952 24.88 10.904 9.792 18.784 16.868 36.032 16.868s25.128-7.074 36.030-16.868c12.344-11.084 27.708-24.88 56.95-24.88v31.312c-17.246 0-25.124 7.074-36.030 16.866z" />
<glyph unicode="&#xe90b;" glyph-name="link" d="M964.081 900.083c-79.907 79.891-209.428 79.891-289.333 0l-217.004-217.006c-20.804-20.804-35.908-45.038-45.876-70.811 18.432 0.7 36.846-0.154 55.040-3.414 7.048 13.62 15.582 26.658 27 38.058l217.006 217.006c59.836 59.836 157.167 59.836 217.004 0s59.836-157.167 0-217.004l-217.004-217.004c-59.818-59.818-157.167-59.836-217.004 0-21.88 21.88-51.234 31.3-79.891 29.202 9.984-23.722 24.406-46.046 43.724-65.367 79.891-79.891 209.428-79.891 289.333 0l217.004 217.004c79.891 79.889 79.891 209.444 0 289.333zM557.090 287.145c-7.066-13.62-15.598-26.658-27-38.058l-217.004-217.004c-59.818-59.818-157.167-59.836-217.004 0s-59.818 157.167 0 217.004l217.004 217.004c59.836 59.836 157.167 59.836 217.004 0 21.88-21.88 51.234-31.318 79.891-29.202-9.966 23.722-24.406 46.046-43.724 65.367-79.891 79.891-209.428 79.891-289.333 0l-217.006-217.004c-79.891-79.891-79.891-209.428 0-289.333 79.891-79.891 209.428-79.891 289.333 0l217.004 217.004c20.804 20.804 35.908 45.038 45.876 70.811-18.432-0.698-36.848 0.156-55.040 3.414z" />
<glyph unicode="&#xe90c;" glyph-name="location" d="M818.251 833.149c-81.8 81.802-190.562 126.852-306.248 126.852s-224.448-45.050-306.25-126.852c-81.802-81.804-126.852-190.564-126.852-306.248 0-234.024 221.276-428.676 340.156-533.248 16.52-14.532 30.786-27.082 42.152-37.698 14.24-13.302 32.518-19.954 50.792-19.954 18.278 0 36.552 6.652 50.794 19.954 11.366 10.618 25.632 23.166 42.152 37.698 118.878 104.574 340.156 299.224 340.156 533.248-0.002 115.682-45.050 224.442-126.852 306.248zM565.327 38.689c-16.882-14.85-31.46-27.676-43.48-38.902-5.522-5.154-14.17-5.156-19.694 0-12.018 11.23-26.598 24.054-43.48 38.904-111.76 98.31-319.792 281.31-319.792 488.208 0 205.736 167.378 373.116 373.118 373.116 205.736 0 373.116-167.378 373.116-373.116 0.002-206.898-208.026-389.898-319.788-488.21zM512.003 734.125c-105.242 0-190.862-85.618-190.862-190.86s85.62-190.86 190.862-190.86 190.86 85.618 190.86 190.86-85.618 190.86-190.86 190.86zM512.003 412.389c-72.166 0-130.878 58.712-130.878 130.876s58.712 130.876 130.878 130.876 130.876-58.712 130.876-130.876-58.71-130.876-130.876-130.876z" />
<glyph unicode="&#xe90d;" glyph-name="medal" d="M512.002 392.533c14.238 0 25.78 11.543 25.78 25.78s-11.543 25.78-25.78 25.78c-80.28 0-145.593 65.313-145.593 145.593s65.313 145.593 145.593 145.593 145.593-65.313 145.593-145.593c0-40.379-16.991-79.296-46.614-106.775-10.439-9.683-11.051-25.997-1.372-36.433 9.68-10.443 25.993-11.055 36.433-1.372 40.107 37.203 63.11 89.897 63.11 144.579 0 108.71-88.443 197.152-197.152 197.152s-197.152-88.443-197.152-197.152 88.443-197.152 197.156-197.152zM527.050 486.603c14.238 0 25.78 11.543 25.78 25.78v154.643c0 10.429-6.28 19.827-15.915 23.817-9.631 3.987-20.724 1.784-28.094-5.589l-50.127-50.127c-10.068-10.068-10.068-26.392 0-36.457 10.068-10.071 26.392-10.068 36.457 0l6.119 6.119v-92.403c0-14.241 11.543-25.784 25.78-25.784zM773.223 253.235c-7.119 12.33-22.893 16.551-35.216 9.436-12.33-7.119-16.554-22.886-9.436-35.216l72.731-125.966-78.97 15.726c-12.677 2.526-25.289-4.744-29.448-17.001l-25.866-76.254-117.035 202.71c19.593 7.394 37.065 19.277 53.197 30.249 13.189 8.972 25.646 17.445 37.416 22.326 12.625 5.235 27.984 8.26 44.246 11.464 30.287 5.967 64.616 12.732 89.014 37.13 24.395 24.395 31.16 58.724 37.127 89.010 3.204 16.259 6.232 31.62 11.467 44.246 4.881 11.77 13.354 24.227 22.326 37.416 17.599 25.873 37.543 55.197 37.543 91.179s-19.947 65.306-37.543 91.179c-8.972 13.189-17.445 25.646-22.326 37.416-5.235 12.625-8.26 27.987-11.464 44.246-5.967 30.287-12.732 64.616-37.127 89.010-24.395 24.398-58.724 31.16-89.014 37.13-16.259 3.204-31.617 6.232-44.246 11.464-11.77 4.881-24.227 13.354-37.416 22.326-25.876 17.592-55.204 37.539-91.183 37.539-14.238 0-25.78-11.543-25.78-25.78s11.543-25.78 25.78-25.78c20.109 0 40.544-13.901 62.182-28.616 14.753-10.037 30.012-20.414 46.662-27.32 17.372-7.201 36.006-10.876 54.028-14.427 25.313-4.988 49.223-9.697 62.522-22.999 13.299-13.299 18.012-37.209 22.996-62.519 3.551-18.022 7.225-36.659 14.427-54.028 6.902-16.647 17.28-31.906 27.317-46.662 14.715-21.635 28.616-42.073 28.616-62.182s-13.901-40.544-28.616-62.182c-10.037-14.753-20.414-30.012-27.32-46.662-7.201-17.372-10.876-36.006-14.427-54.028-4.988-25.313-9.7-49.223-22.999-62.522-13.303-13.303-37.209-18.012-62.522-22.999-18.022-3.551-36.656-7.225-54.028-14.427-16.647-6.902-31.906-17.28-46.662-27.317-21.635-14.715-42.073-28.616-62.182-28.616s-40.544 13.901-62.182 28.616c-14.753 10.037-30.012 20.414-46.662 27.32-17.372 7.201-36.006 10.876-54.028 14.427-25.313 4.988-49.223 9.7-62.522 22.999s-18.012 37.209-22.996 62.519c-3.551 18.022-7.225 36.659-14.427 54.028-6.902 16.647-17.28 31.906-27.317 46.659-14.719 21.635-28.619 42.073-28.619 62.182s13.901 40.544 28.616 62.182c10.037 14.757 20.414 30.012 27.32 46.662 7.201 17.372 10.876 36.006 14.427 54.028 4.988 25.313 9.7 49.22 22.999 62.522 10.068 10.068 10.068 26.392 0 36.457-10.068 10.071-26.392 10.068-36.457 0-24.395-24.395-31.16-58.724-37.127-89.014-3.204-16.259-6.232-31.62-11.467-44.246-4.881-11.77-13.354-24.227-22.326-37.412-17.599-25.873-37.543-55.201-37.543-91.179s19.947-65.306 37.546-91.179c8.968-13.186 17.441-25.643 22.322-37.412 5.235-12.625 8.26-27.987 11.464-44.246 5.967-30.287 12.732-64.616 37.127-89.010 9.308-9.308 20.064-16.039 31.49-21.147l-132.050-228.711c-5.060-8.765-4.524-19.682 1.372-27.908s16.056-12.234 25.99-10.264l112.604 22.422 36.883-108.731c3.252-9.587 11.811-16.382 21.886-17.376 0.849-0.082 1.695-0.124 2.537-0.124 9.143 0 17.685 4.864 22.319 12.89l138.821 240.446 138.821-240.446c4.634-8.026 13.175-12.89 22.319-12.89 0.842 0 1.688 0.041 2.537 0.124 10.075 0.993 18.634 7.789 21.886 17.376l36.883 108.731 112.604-22.422c9.924-1.98 20.091 2.038 25.99 10.264 5.895 8.229 6.431 19.143 1.372 27.908l-101.182 175.256zM356.984 23.96l-25.866 76.254c-4.156 12.258-16.767 19.531-29.448 17.001l-78.97-15.726 109.989 190.504c2.176-0.437 4.338-0.863 6.476-1.286 16.259-3.207 31.617-6.232 44.246-11.467 11.77-4.881 24.227-13.354 37.416-22.326 16.132-10.972 33.604-22.855 53.197-30.249l-117.039-202.707z" />
<glyph unicode="&#xe90e;" glyph-name="paper-windmill" d="M1024 468.534h-275.23v232.863l-257.305 258.602v-275.23h-232.863l-258.602-257.305h275.23v-232.863l257.302-258.598v275.23h232.863l258.605 257.302zM924.493 427.463l-167.534-166.693-156.061 156.061c1.215 3.459 2.229 7.006 3.042 10.635l320.554-0.003zM512 394.847c-29.306 0-53.151 23.841-53.151 53.151s23.841 53.151 53.151 53.151c29.309 0 53.151-23.841 53.151-53.151s-23.845-53.151-53.151-53.151zM603.939 468.534c-3.942 17.662-12.837 33.476-25.177 45.879l128.934 128.934v-174.813h-103.757zM532.535 860.491l166.696-167.534-156.061-156.061c-3.459 1.215-7.006 2.229-10.635 3.039v320.557zM491.465 539.937c-17.662-3.942-33.476-12.837-45.879-25.173l-128.934 128.934h174.81v-103.762h0.003zM99.507 468.534l167.534 166.693 156.061-156.061c-1.215-3.459-2.229-7.006-3.039-10.635l-320.557 0.003zM420.061 427.463c3.942-17.662 12.837-33.476 25.173-45.879l-128.934-128.934v174.813h103.76zM491.465 35.505l-166.693 167.531 156.061 156.061c3.459-1.215 7.006-2.229 10.635-3.039v-320.554h-0.003zM532.535 356.059c17.662 3.942 33.476 12.837 45.879 25.177l128.934-128.934h-174.813v103.757z" />
<glyph unicode="&#xe90f;" glyph-name="phone" d="M569.063 486.896c4.86 0 9.719 1.86 13.421 5.562l290.308 290.308v-181.971c0-10.498 8.505-18.983 18.983-18.983s18.983 8.486 18.983 18.983v227.797c0 2.468-0.513 4.936-1.462 7.252-1.917 4.651-5.619 8.353-10.27 10.27-2.525 1.044-5.182 1.424-7.878 1.348-0.209 0-0.38 0.114-0.607 0.114h-227.797c-10.479 0-18.983-8.486-18.983-18.983s8.505-18.983 18.983-18.983h183.186l-290.289-290.308c-7.422-7.422-7.422-19.42 0-26.842 3.702-3.721 8.561-5.562 13.421-5.562zM1013.020 183.357c-38.118 72.041-170.486 150.194-176.314 153.611-24.223 13.82-49.299 18.186-70.636 12.263-16.022-4.442-29.082-14.579-37.89-29.348-19.363-23.16-43.395-50.229-49.204-54.424-44.952-30.449-80.678-26.861-119.479 11.941l-218.040 218.040c-38.82 38.82-42.389 74.566-11.978 119.422 4.252 5.885 31.323 29.899 54.481 49.28 14.769 8.808 24.906 21.869 29.348 37.89 5.904 21.318 1.557 46.394-12.377 70.826-3.284 5.619-81.457 138.007-153.478 176.106-36.561 19.344-80.754 12.7-110.026-16.553l-48.198-48.16c-76.198-76.198-103.78-162.552-82.026-256.651 18.148-78.438 71.035-161.907 157.218-248.070l279.146-279.165c109.38-109.38 213.712-164.318 309.386-164.318 70.256 0 135.862 29.652 195.355 89.126l48.16 48.16c29.253 29.253 35.897 73.484 16.553 110.026zM969.625 100.192l-48.16-48.16c-124.681-124.662-276.451-99.376-451.037 75.192l-279.165 279.146c-81.077 81.077-130.547 158.395-147.062 229.771-18.869 81.665 4.632 154.010 71.87 221.267l48.16 48.16c10.764 10.745 24.925 16.364 39.295 16.364 8.865 0 17.825-2.126 26.121-6.53 62.511-33.087 137.741-160.483 138.387-161.565 8.524-14.94 11.77-30.525 8.675-41.686-1.898-6.834-6.151-12.035-12.985-15.87l-2.848-1.974c-16.193-13.516-54.728-46.204-62.796-58.107-11.618-17.161-19.325-34.017-23.369-50.59-13.497 26.918-24.413 58.088-28 92.657-1.082 10.403-10.346 17.749-20.844 16.933-10.422-1.101-18.015-10.422-16.933-20.863 13.706-131.989 116.347-217.907 120.713-221.495 0.475-0.38 1.025-0.532 1.519-0.854l201.467-201.467c0.854-0.854 1.746-1.614 2.601-2.449 0.664-0.968 1.101-2.050 1.974-2.923 3.588-3.55 89.297-86.696 220.185-100.287 0.664-0.057 1.329-0.095 1.974-0.095 9.606 0 17.844 7.271 18.869 17.009 1.082 10.441-6.492 19.762-16.933 20.863-40.13 4.157-75.686 15.927-105.318 29.576 14.522 4.366 29.291 11.618 44.268 21.755 11.922 8.087 44.61 46.603 58.107 62.796l1.974 2.866c3.835 6.815 9.036 11.067 15.87 12.985 11.181 3.018 26.748-0.152 41.497-8.543 1.272-0.759 128.667-75.989 161.755-138.501 11.504-21.717 7.555-47.989-9.833-65.378z" />
<glyph unicode="&#xe910;" glyph-name="phone-call" d="M341.606 364.636c-43.808 0-80.576-26.493-103.924-58.745-23.329 32.252-60.116 58.745-103.924 58.745-69.825 0-125.627-54.174-132.94-128.935-0.768-4.882-2.651-22.306 4.132-49.531 9.983-40.169 32.929-76.645 66.388-105.496l152.284-130.307c4.077-3.492 9.069-5.248 14.060-5.248s9.983 1.755 14.060 5.229l152.321 130.343c33.422 28.796 56.368 65.272 66.351 105.46 6.747 27.242 4.9 44.649 4.132 49.549-7.314 74.762-63.115 128.935-132.94 128.935zM434.925 194.964c-8.136-32.801-27.041-62.749-54.667-86.518l-142.557-121.988-142.52 121.97c-27.663 23.823-46.569 53.754-54.704 86.555-5.522 22.178-3.547 34.684-3.547 34.684l0.293 1.92c4.48 47.922 39.090 96.446 96.574 96.446 40.023 0 72.659-33.111 87.213-65.912l16.693-37.646 16.712 37.682c14.554 32.819 47.172 65.912 87.213 65.912 57.501 0 92.094-48.525 96.811-98.109 0.018-0.128 2.030-12.653-3.511-34.995zM1013.4 202.881c-36.713 69.404-164.186 144.66-169.799 147.951-23.366 13.311-47.538 17.498-68.070 11.812-15.432-4.26-27.992-14.024-36.457-28.248-18.649-22.306-41.778-48.379-47.391-52.419-43.332-29.327-77.742-25.853-115.095 11.501l-210.005 209.987c-37.39 37.39-40.827 71.818-11.537 115.040 4.096 5.668 30.149 28.796 52.456 47.446 14.225 8.466 23.988 21.026 28.266 36.476 5.613 20.221 1.298 45.033-11.94 68.234-3.163 5.412-78.418 132.903-147.823 169.598-35.214 18.685-77.797 12.287-105.972-15.925l-46.367-46.386c-110.305-110.287-113.925-245.036-10.477-389.714 5.869-8.191 17.26-10.111 25.524-4.224 8.21 5.869 10.111 17.297 4.224 25.524-94.27 131.824-92.112 243.884 6.582 342.561l46.367 46.386c16.803 16.748 42.126 20.569 63.005 9.489 60.226-31.868 132.665-154.551 133.269-155.594 8.21-14.408 11.336-29.418 8.356-40.169-1.828-6.582-5.906-11.574-12.488-15.267l-2.761-1.902c-15.596-13.018-52.712-44.502-60.482-55.984-11.19-16.529-18.612-32.782-22.507-48.744-13 25.926-23.512 55.966-26.968 89.243-1.060 10.020-9.928 17.26-20.093 16.309-10.038-1.060-17.333-10.038-16.309-20.093 13.201-127.125 112.078-209.877 116.265-213.333 0.475-0.384 1.024-0.53 1.518-0.859l193.989-193.989c0.804-0.804 1.627-1.518 2.45-2.286 0.658-0.969 1.079-2.030 1.938-2.889 3.456-3.419 86.006-83.501 212.071-96.592 0.64-0.055 1.28-0.091 1.902-0.091 9.252 0 17.187 7.003 18.173 16.383 1.042 10.056-6.271 19.033-16.309 20.093-38.67 4.004-72.915 15.34-101.455 28.504 14.006 4.187 28.23 11.19 42.674 20.953 11.482 7.771 42.967 44.886 55.984 60.482l1.902 2.761c3.693 6.564 8.685 10.66 15.267 12.488 10.733 2.999 25.761-0.146 39.986-8.228 34.355-20.148 129.301-83.355 155.795-133.397 11.062-20.934 7.259-46.239-9.489-62.987l-46.386-46.386c-98.603-98.603-215.582-99.572-347.68-2.907-8.191 5.979-19.6 4.187-25.542-3.949-5.961-8.155-4.187-19.581 3.949-25.542 71.946-52.657 141.387-78.93 206.714-78.93 67.978 0 131.44 28.522 188.431 85.494l46.386 46.386c28.193 28.156 34.611 70.739 15.962 105.935z" />
<glyph unicode="&#xe911;" glyph-name="play-button" d="M1020.153 464.309c-3.544 7.11-9.306 12.874-16.418 16.418l-950.818 475.407c-18.066 9.030-40.031 1.701-49.059-16.366-2.539-5.081-3.859-10.684-3.857-16.364v-950.816c-0.009-20.198 16.356-36.577 36.554-36.588 5.68-0.002 11.284 1.318 16.364 3.857l950.816 475.409c18.076 9.010 25.426 30.967 16.418 49.044zM73.14 31.757v832.478l832.478-416.239-832.478-416.239z" />
<glyph unicode="&#xe912;" glyph-name="plug-electronics" d="M955.761 617.226h-232.778c-2.497 58.705-20.107 112.82-49.003 159.171l0.803-1.381c-24.955 42.839-68.129 72.718-118.625 79.090l-0.79 0.081v0.659h-237.531c-5.97 31.825-33.511 55.596-66.616 55.658h-62.304c-37.472-0.061-67.833-30.416-67.904-67.879v-114.171h-98.038c-0.189 0.006-0.412 0.009-0.635 0.009-12.504 0-22.641-10.137-22.641-22.641s10.137-22.641 22.641-22.641c0.223 0 0.446 0.003 0.668 0.010l-0.033-0.001h98.091v-188.672h-98.091c-12.492-0.030-22.61-10.149-22.641-22.638v-0.003c0.020-12.506 10.138-22.644 22.636-22.694h98.096v-90.473c0.071-37.47 30.432-67.826 67.898-67.886h62.303c28.58 0.082 52.999 17.813 62.938 42.864l0.161 0.459h241.055v0.695c51.307 6.456 94.491 36.373 119.004 78.496l0.411 0.764c28.109 44.948 45.721 99.050 48.178 157.072l0.022 0.665h232.778c12.428-0.169 22.456-10.209 22.605-22.626v-388.606c-0.168-12.427-10.183-22.461-22.586-22.658h-494.32c-37.478-0.030-67.853-30.393-67.904-67.864v-84.889h45.281v84.884c0.179 12.437 10.234 22.467 22.663 22.605h494.261c37.46 0.111 67.795 30.459 67.886 67.913v388.601c-0.010 37.536-30.411 67.968-67.934 68.029h-0.006zM273.82 358.835c-0.149-12.427-10.179-22.464-22.59-22.623h-62.312c-12.429 0.177-22.461 10.197-22.658 22.604v483.855c0.207 12.43 10.229 22.452 22.639 22.658h62.317c12.422-0.198 22.437-10.231 22.605-22.643v-0.016zM320.098 379.588v430.064h190.078v-430.046h-190.149zM636.924 438.878c-16.987-30.256-46.172-51.952-80.715-58.532l-0.735-0.116v428.747c35.279-6.681 64.467-28.372 81.145-58.040l0.305-0.591c26.179-44.69 41.638-98.411 41.638-155.743s-15.459-111.053-42.436-157.221l0.799 1.479z" />
<glyph unicode="&#xe913;" glyph-name="power-dplant" d="M374.916 154.264c-42.585 27.648-34.659 81.088-26.749 109.138l65.582-65.541 16.849 16.813-88.5 88.5-88.444-88.5 16.757-16.87 49.869 49.869c-5.572-34.418-3.752-83.921 41.65-113.368 59.784-38.761 50.732-96.354 50.347-98.544l-2.005-9.108 23.454-4.616 1.856 8.846c0.17 0.756 13.030 75.624-60.663 123.381zM707.67 851.002c12.783 0 31.642-4.174 48.342-8.239 20.694-5.078 44.148-10.799 65.469-10.799 20.329 0 36.073 5.078 48.198 15.615 21.285 18.468 29.175 52.279 24.081 103.345l-0.977 9.072-29.324-2.925 0.884-9.108c4.086-40.231-0.663-66.538-14.037-78.107-6.512-5.649-15.95-8.425-28.918-8.425-17.769 0-38.463 5.078-58.55 9.972-19.681 4.821-38.319 9.401-54.654 9.401-14.402 0-25.387-3.66-33.462-11.072-12.362-11.349-16.407-30.059-12.254-57.209l0.848-5.464h-47.571l-33.647-420.777h-30.537v212.468l-153.913-86.609v86.609l-218.79-123.196v-89.256h-50.11v-450.301h697.715v450.301h-87.837l-24.703 412.182-0.55 8.589h-26.25l5.906 0.92-1.378 9.031c-3.439 22.298 0.956 29.082 2.997 30.979 1.485 1.367 4.945 3.002 13.020 3.002zM710.317 365.385l0.55-8.589h86.11v-391.288h-638.739v391.288h50.11v101.505l159.854 89.991v-86.604l153.841 86.604v-191.497h87.267l33.698 420.813h42.621l24.688-412.224zM628.143 154.264c-42.678 27.705-34.675 81.196-26.749 109.174l65.582-65.633 16.885 16.87-88.5 88.5-88.5-88.5 16.849-16.87 49.869 49.869c-5.592-34.418-3.716-83.957 41.629-113.368 59.768-38.761 50.696-96.354 50.311-98.544l-1.969-9.108 23.696-4.672 1.676 9.108c0.576 3.033 12.788 75.491-60.776 123.175z" />
<glyph unicode="&#xe914;" glyph-name="power-plant" d="M764.536 603.331c-60.066 0-115.598 31.092-164.381 58.589-3.569 1.651-7.005 3.587-10.242 5.776-91.415 51.47-152.32 77.151-224.824 3.207-9.412-9.602-24.831-9.753-34.433-0.339-9.6 9.415-9.753 24.831-0.339 34.433 104.152 106.216 204.121 49.867 284.447 4.589 0.703-0.397 1.384-0.826 2.043-1.289 1.299-0.911 2.706-1.704 4.19-2.358 0.728-0.322 1.44-0.677 2.133-1.069 99.396-56.031 165.751-83.98 248.931 0.13 9.456 9.561 24.872 9.647 34.433 0.192s9.647-24.872 0.192-34.433c-49.302-49.856-97.013-67.428-142.152-67.428zM695.311 816.271c13.447 0 24.348 10.901 24.348 24.348 0 30.134 24.515 54.649 54.647 54.649 28.705 0 52.652-22.405 54.521-51.008 0.814-12.452 10.906-22.273 23.374-22.746 69.031-2.613 123.102-58.809 123.102-127.935 0-69.128-54.074-125.324-123.102-127.935-12.469-0.473-22.56-10.291-23.377-22.744-1.871-28.603-25.818-51.011-54.521-51.011-30.131 0-54.647 24.513-54.647 54.644 0 13.447-10.901 24.348-24.348 24.348s-24.348-10.901-24.348-24.348c0-56.982 46.359-103.341 103.343-103.341 47.069 0 87.38 31.885 99.568 75.649 38.199 5.755 73.36 23.829 100.574 52.026 31.954 33.107 49.552 76.688 49.552 122.71s-17.598 89.604-49.552 122.71c-27.214 28.198-62.373 46.271-100.572 52.026-12.186 43.766-52.497 75.649-99.57 75.649-56.984 0-103.343-46.361-103.343-103.345 0.002-13.447 10.903-24.348 24.351-24.348zM226.343 665.76c2.692-0.955 5.438-1.408 8.142-1.408 10.018 0 19.407 6.233 22.948 16.214 36.803 103.744 132.549 138.46 203.224 136.658 54.753-1.389 104.236-23.896 181.944-67.73l0.41-0.237c26.941-15.543 57.476-33.16 89.525-40.175 40.805-8.932 76.055 1.264 104.767 30.298 9.454 9.563 9.368 24.977-0.192 34.433-9.561 9.454-24.977 9.366-34.433-0.192-35.303-35.699-76.5-16.125-135.332 17.816l-0.524 0.304c-0.067 0.039-0.137 0.079-0.204 0.116-72.414 40.847-133.468 72.238-204.724 74.046-87.011 2.233-204.833-40.733-250.355-169.055-4.496-12.675 2.133-26.593 14.806-31.089zM798.605 169.887c13.447 0 24.348 10.901 24.348 24.348v47.627c0 13.447-10.901 24.348-24.348 24.348s-24.348-10.901-24.348-24.348v-47.627c0-13.447 10.901-24.348 24.348-24.348zM1024-23.61c0-13.447-10.901-24.348-24.348-24.348h-417.015c-0.243-0.005-0.487-0.005-0.728 0h-199.161c-13.447 0-24.348 10.901-24.348 24.348v79.535c0 13.447 10.901 24.348 24.348 24.348s24.348-10.901 24.348-24.348v-55.187h147.485l-72.405 556.027h-303.685l-72.402-556.030 147.488-0.002v55.194c0 13.447 10.901 24.348 24.348 24.348s24.348-10.901 24.348-24.348v-79.542c0-6.458-2.565-12.652-7.131-17.218s-10.76-7.131-17.218-7.131l-199.256 0.005c-0.181-0.002-0.362-0.002-0.545 0h-53.775c-13.447 0-24.348 10.901-24.348 24.348s10.903 24.348 24.348 24.348h32.634l75.98 583.52c1.579 12.128 11.912 21.204 24.144 21.204h346.45c12.232 0 22.565-9.076 24.144-21.204l31.551-242.299h386.378c13.447 0 24.348-10.901 24.348-24.348v-316.872h29.67c13.452 0 24.353-10.901 24.353-24.348zM921.283 293.262h-355.688l38.092-292.524h317.598v292.524zM686.492 169.887c13.447 0 24.348 10.901 24.348 24.348v47.627c0 13.447-10.901 24.348-24.348 24.348s-24.348-10.901-24.348-24.348v-47.627c0-13.447 10.901-24.348 24.348-24.348z" />
<glyph unicode="&#xe915;" glyph-name="quote-lefts" d="M215.579 70.737c-133.944 0-242.526 108.582-242.526 242.526v0 26.947c-0.001 0.333-0.001 0.729-0.001 1.123 0 239.219 145.414 444.474 352.671 532.195l3.788 1.424c6.4 2.896 13.878 4.584 21.75 4.584 29.765 0 53.895-24.13 53.895-53.895 0-22.636-13.954-42.013-33.73-49.996l-0.361-0.129c-171.829-72.573-290.224-239.685-290.224-434.448 0-0.302 0-0.604 0.001-0.906v0.047-26.947c0-74.412 60.323-134.737 134.737-134.737s134.737 60.323 134.737 134.737c0 74.412-60.323 134.737-134.737 134.737v0c-29.765 0-53.895 24.13-53.895 53.895s24.13 53.895 53.895 53.895v0c133.944 0 242.526-108.582 242.526-242.526s-108.582-242.526-242.526-242.526v0zM754.526 70.737c-133.944 0-242.526 108.582-242.526 242.526v0 26.947c0 0.317-0.001 0.693-0.001 1.070 0 239.219 145.414 444.474 352.67 532.195l3.789 1.425c6.4 2.896 13.878 4.584 21.75 4.584 29.765 0 53.895-24.13 53.895-53.895 0-22.636-13.954-42.013-33.73-49.996l-0.361-0.129c-171.829-72.573-290.224-239.685-290.224-434.448 0-0.283 0-0.566 0.001-0.849v0.044-26.947c0-74.412 60.323-134.737 134.737-134.737s134.737 60.323 134.737 134.737c0 74.412-60.323 134.737-134.737 134.737v0c-29.765 0-53.895 24.13-53.895 53.895s24.13 53.895 53.895 53.895v0c133.944 0 242.526-108.582 242.526-242.526s-108.582-242.526-242.526-242.526v0z" />
<glyph unicode="&#xe916;" glyph-name="remove" d="M981.33 490.668h-938.661c-23.565 0-42.668-19.103-42.668-42.668s19.102-42.668 42.668-42.668h938.664c23.565 0 42.668 19.102 42.668 42.668s-19.105 42.668-42.67 42.668z" />
<glyph unicode="&#xe917;" glyph-name="renewable-energy" d="M874.038 810.038c-96.702 96.706-225.278 149.962-362.038 149.962-81.098 0-158.666-18.412-230.554-54.728-54.272-27.416-103.76-64.894-145.26-109.658l8.82 52.92c1.506 9.034-4.598 17.582-13.634 19.088-9.034 1.494-17.582-4.598-19.088-13.634l-17.694-106.16c-0.88-5.284 0.844-10.67 4.634-14.456 3.136-3.136 7.368-4.86 11.728-4.86 0.906 0 1.82 0.076 2.726 0.226l106.16 17.694c9.036 1.506 15.142 10.052 13.636 19.088s-10.064 15.138-19.088 13.634l-57.066-9.508c39.46 43.41 86.928 79.668 139.084 106.018 67.206 33.946 139.744 51.16 215.596 51.16 127.898 0 248.142-49.806 338.582-140.244 90.438-90.44 140.244-210.682 140.244-338.582 0-77.39-18.886-154.26-54.614-222.298-4.26-8.11-1.136-18.138 6.974-22.398 2.462-1.292 5.098-1.904 7.696-1.904 5.968 0 11.732 3.23 14.698 8.88 38.218 72.776 58.42 154.98 58.42 237.722 0 136.76-53.256 265.336-149.962 362.038zM924.776 162.63c-3.786 3.786-9.174 5.51-14.454 4.632l-106.16-17.694c-9.036-1.506-15.142-10.052-13.636-19.088s10.058-15.13 19.088-13.634l57.066 9.51c-90.778-100.268-218.24-157.178-354.682-157.178-127.898 0-248.142 49.806-338.582 140.244-90.434 90.436-140.242 210.68-140.242 338.578 0 77.39 18.886 154.26 54.614 222.298 4.26 8.11 1.136 18.138-6.974 22.398-8.11 4.262-18.14 1.14-22.398-6.974-38.214-72.776-58.416-154.98-58.416-237.722 0-136.76 53.256-265.336 149.962-362.038s225.278-149.962 362.038-149.962c144.17 0 278.97 59.41 375.792 164.266l-8.8-52.798c-1.506-9.034 4.598-17.582 13.634-19.088 0.922-0.152 1.842-0.228 2.746-0.228 7.962 0 14.988 5.75 16.342 13.862l17.694 106.16c0.882 5.284-0.844 10.668-4.632 14.456zM695.898 505.218c-4.63 7.796-12.806 12.452-21.872 12.452h-120.182l79.796 207.472c1.962 5.098 1.284 10.838-1.81 15.342-3.094 4.506-8.208 7.196-13.672 7.196h-176.932c-7.774 0-14.506-5.398-16.192-12.99l-68.382-307.714c-1.682-7.57 0.136-15.382 4.988-21.432 4.852-6.048 12.084-9.52 19.84-9.52h111.866l-33.208-282.262c-0.928-7.892 3.87-15.334 11.44-17.744 1.664-0.53 3.36-0.782 5.032-0.782 5.938 0 11.594 3.204 14.562 8.648l205.182 376.168c4.342 7.964 4.172 17.37-0.456 25.166zM503.104 195.034l25.37 215.642c0.552 4.704-0.932 9.422-4.078 12.96s-7.66 5.564-12.396 5.564h-120.868l63.402 285.304h139.474l-79.796-207.472c-1.962-5.1-1.286-10.84 1.81-15.344s8.208-7.196 13.672-7.196h131.298l-157.888-289.458z" />
<glyph unicode="&#xe918;" glyph-name="renewable-energy-2" d="M34.134 448c0 263.492 214.356 477.866 477.866 477.866 147.916 0 286.328-69.65 376.44-187.734h-103.372c-9.438 0-17.066-7.646-17.066-17.066s7.628-17.066 17.066-17.066h136.532c0.528 0 0.99 0.256 1.502 0.308 1.126 0.086 2.218 0.342 3.31 0.666 1.16 0.342 2.184 0.75 3.226 1.298 0.444 0.238 0.956 0.274 1.4 0.58 0.478 0.308 0.734 0.802 1.16 1.16 0.922 0.734 1.724 1.536 2.458 2.44 0.682 0.854 1.28 1.706 1.776 2.646 0.512 0.956 0.904 1.912 1.212 2.952 0.358 1.126 0.598 2.218 0.682 3.414 0.068 0.546 0.342 1.042 0.342 1.604v136.532c0 9.42-7.628 17.066-17.066 17.066s-17.066-7.646-17.066-17.066v-85.026c-96.618 118.102-239.79 187.426-392.536 187.426-282.316 0-512-229.684-512-512 0-54.324 8.448-107.758 25.106-158.822 2.356-7.22 9.028-11.794 16.23-11.794 1.74 0 3.532 0.29 5.29 0.854 8.96 2.936 13.858 12.562 10.94 21.52-15.548 47.652-23.432 97.52-23.432 148.242zM997.922 609.74c-2.97 8.942-12.596 13.79-21.606 10.786-8.926-2.97-13.772-12.63-10.804-21.572 16.162-48.504 24.354-99.294 24.354-150.954 0-263.492-214.358-477.866-477.866-477.866-147.882 0-286.294 69.632-376.422 187.734h103.356c9.42 0 17.066 7.646 17.066 17.066s-7.646 17.066-17.066 17.066h-136.534c-0.53 0-0.956-0.256-1.468-0.308-1.16-0.086-2.27-0.342-3.396-0.682-1.11-0.324-2.134-0.734-3.14-1.262-0.46-0.256-0.972-0.29-1.434-0.598-0.478-0.308-0.734-0.802-1.178-1.16-0.904-0.75-1.69-1.536-2.44-2.44-0.682-0.854-1.262-1.706-1.774-2.662-0.512-0.938-0.888-1.894-1.212-2.936-0.358-1.126-0.58-2.218-0.7-3.396-0.052-0.564-0.324-1.042-0.324-1.622v-136.534c0-9.42 7.646-17.066 17.066-17.066s17.066 7.646 17.066 17.066v85.044c96.65-118.136 239.804-187.444 392.534-187.444 282.316 0 512 229.684 512 512 0 55.33-8.79 109.756-26.078 161.74zM564.532 287.726c0.12-0.274 0.358-0.46 0.478-0.734 0.82-1.672 1.758-3.328 3.158-4.728 1.298-1.298 2.834-2.116 4.386-2.918 0.392-0.204 0.682-0.546 1.092-0.716 2.1-0.888 4.334-1.366 6.588-1.366 0.052 0 0.086 0.034 0.136 0.034l88.064-0.052c14.95 0 92.178 2.714 145.716 56.252 59.238 59.222 56.338 145.646 56.2 148.6v85.334c0 9.42-7.628 17.066-17.066 17.066l-88.218 0.034c-14.95 0-92.178-2.714-145.716-56.234-59.238-59.238-56.286-145.682-56.15-148.6v-85.196c-0.018-2.304 0.426-4.608 1.332-6.776zM643.482 504.166c44.016 44.014 109.004 46.234 121.584 46.234l71.152-0.034 0.016-68.984c0.034-0.75 2.542-75.008-46.216-123.75-44.016-44.032-109.004-46.25-121.584-46.25l-46.984 0.034 175.684 175.684c6.674 6.656 6.674 17.46 0 24.132-6.672 6.656-17.46 6.656-24.132 0l-175.668-175.668-0.018 44.818c-0.034 0.75-2.286 75.332 46.166 123.784zM472.798 664.952c-52.088 52.104-124.552 56.15-145.528 56.15l-88.286-0.034c-9.42 0-17.066-7.646-17.066-17.066l0.018-84.548c-0.154-3.636-3.054-90.078 56.132-149.3 53.59-53.606 130.816-56.32 145.766-56.32l71.1 0.034v-324.268c0-9.42 7.646-17.066 17.066-17.066s17.066 7.646 17.066 17.066v341.078c0 0.102 0.052 0.17 0.052 0.256v0.186l-0.018 84.548c0.154 3.654 2.868 90.080-56.302 149.284zM494.984 516.352v-44.1l-175.668 175.668c-6.674 6.672-17.476 6.672-24.132 0-6.672-6.656-6.672-17.46 0-24.132l175.804-175.804-47.156-0.018c-12.578 0-77.55 2.218-121.618 46.318-48.418 48.436-46.216 123.034-46.166 124.468v68.182l71.22 0.034c12.578 0 77.466-2.218 121.378-46.148 48.438-48.47 46.372-123.086 46.338-124.468z" />
<glyph unicode="&#xe919;" glyph-name="right-arrow" d="M1012.268 476.314c-0.012 0.012-0.022 0.026-0.036 0.038l-209.008 208c-15.658 15.582-40.984 15.524-56.57-0.136-15.584-15.658-15.524-40.984 0.134-56.568l140.328-139.648h-847.116c-22.092 0-40-17.908-40-40s17.908-40 40-40h847.114l-140.324-139.648c-15.658-15.584-15.718-40.91-0.134-56.568 15.586-15.662 40.914-15.716 56.57-0.136l209.008 208c0.012 0.012 0.022 0.026 0.036 0.038 15.666 15.636 15.616 41.044-0.002 56.628z" />
<glyph unicode="&#xe91a;" glyph-name="left-arrow" d="M11.732 419.686c0.012-0.012 0.022-0.026 0.036-0.038l209.008-208c15.658-15.582 40.984-15.524 56.57 0.136 15.584 15.658 15.524 40.984-0.134 56.568l-140.328 139.648h847.116c22.092 0 40 17.908 40 40s-17.908 40-40 40h-847.114l140.324 139.648c15.658 15.584 15.718 40.91 0.134 56.568-15.586 15.662-40.914 15.716-56.57 0.136l-209.008-208c-0.012-0.012-0.022-0.026-0.036-0.038-15.666-15.636-15.616-41.044 0.002-56.628z" />
<glyph unicode="&#xe91b;" glyph-name="up-arrow" d="M483.686 948.268c-0.012-0.012-0.026-0.022-0.038-0.036l-208-209.008c-15.582-15.658-15.524-40.984 0.136-56.57 15.658-15.584 40.984-15.524 56.568 0.134l139.648 140.328v-847.116c0-22.092 17.908-40 40-40s40 17.908 40 40v847.114l139.648-140.324c15.584-15.658 40.91-15.718 56.568-0.134 15.662 15.586 15.716 40.914 0.136 56.57l-208 209.008c-0.012 0.012-0.026 0.022-0.038 0.036-15.636 15.666-41.044 15.616-56.628-0.002z" />
<glyph unicode="&#xe91c;" glyph-name="down-arrow" d="M540.314-52.268c0.012 0.012 0.026 0.022 0.038 0.036l208 209.008c15.582 15.658 15.524 40.984-0.136 56.57-15.658 15.584-40.984 15.524-56.568-0.134l-139.648-140.328v847.116c0 22.092-17.908 40-40 40s-40-17.908-40-40v-847.114l-139.648 140.324c-15.584 15.658-40.91 15.718-56.568 0.134-15.662-15.586-15.716-40.914-0.136-56.57l208-209.008c0.012-0.012 0.026-0.022 0.038-0.036 15.636-15.666 41.044-15.616 56.628 0.002z" />
<glyph unicode="&#xe91d;" glyph-name="search" d="M999.602-31.269l-287.271 298.755c73.273 73.485 118.667 174.791 118.667 286.517 0 223.878-182.118 405.996-405.996 405.996s-405.996-182.118-405.996-405.996 182.118-405.996 405.996-405.996c98.27 0 188.46 35.128 258.755 93.418l287.967-299.49c3.789-3.963 8.855-5.935 13.939-5.935 4.833 0 9.647 1.798 13.398 5.394 7.695 7.405 7.927 19.642 0.541 27.337zM425.001 186.674c-202.553 0-367.33 164.776-367.33 367.33s164.776 367.33 367.33 367.33 367.33-164.776 367.33-367.33-164.796-367.33-367.33-367.33z" />
<glyph unicode="&#xe91e;" glyph-name="shopping-cart" d="M1006.281 800.431c-14.606 17.714-36.256 27.866-59.392 27.866h-594.15c-12.17 0-22.046-9.876-22.046-22.046s9.876-22.046 22.046-22.046h594.138c10.064 0 19.082-4.2 25.376-11.828 6.394-7.76 8.95-17.99 7.022-27.944l-88.108-440.562c-3.418-15.742-16.766-26.732-32.464-26.732h-490.058l-202.33 609.152c-10.936 31.24-40.544 52.228-74.452 52.228-0.010 0-0.022 0-0.034 0-28.76-0.992-57.926-0.982-65.070-0.496-7.11 1.544-14.794-0.44-20.304-5.952-8.61-8.61-8.61-22.564 0-31.174 6.824-6.824 9.128-9.128 86.136-6.46 14.44 0 27.348-9.128 31.99-22.376l207.236-623.922c2.998-9.006 11.42-15.090 20.922-15.090h505.962c36.62 0 67.682 25.276 75.63 61.818l88.218 441.048c4.454 23.058-1.464 46.57-16.268 64.516zM848.781 111.783h-401.242c-13.57 0-26.324 9.348-30.92 22.466l-42.99 127.87c-3.88 11.542-16.414 17.77-27.922 13.868-11.542-3.87-17.748-16.38-13.868-27.922l43.078-128.122c10.946-31.25 40.124-52.238 72.62-52.238h401.242c12.17 0 22.046 9.866 22.046 22.036s-9.874 22.042-22.044 22.042zM462.971 111.795c-42.55 0-77.162-34.624-77.162-77.162s34.612-77.162 77.162-77.162 77.162 34.624 77.162 77.162-34.612 77.162-77.162 77.162zM462.971 1.563c-18.232 0-33.070 14.838-33.070 33.070s14.838 33.070 33.070 33.070c18.232 0 33.070-14.838 33.070-33.070 0-18.234-14.838-33.070-33.070-33.070zM848.781 111.795c-42.538 0-77.162-34.624-77.162-77.162s34.624-77.162 77.162-77.162c42.538 0 77.162 34.624 77.162 77.162s-34.624 77.162-77.162 77.162zM848.781 1.563c-18.232 0-33.070 14.838-33.070 33.070s14.838 33.070 33.070 33.070c18.232 0 33.070-14.838 33.070-33.070 0-18.234-14.838-33.070-33.070-33.070z" />
<glyph unicode="&#xe91f;" glyph-name="solar-panel-1" d="M938.666 618.666h-51.2c-9.438 0-17.066-7.646-17.066-17.066s7.628-17.066 17.066-17.066h51.2c28.228 0 51.2-22.972 51.2-51.2v-68.266h-102.4c-9.438 0-17.066-7.646-17.066-17.066s7.628-17.066 17.066-17.066h102.4v-136.536h-102.4c-9.438 0-17.066-7.646-17.066-17.066s7.628-17.066 17.066-17.066h102.4v-136.534h-102.4c-9.438 0-17.066-7.646-17.066-17.066s7.628-17.066 17.066-17.066h102.4v-68.266c0-28.228-22.972-51.2-51.2-51.2h-102.4v631.464c0 9.42-7.628 17.066-17.066 17.066h-136.534c-9.438 0-17.066-7.646-17.066-17.066s7.628-17.066 17.066-17.066h119.466v-119.466h-119.466c-9.438 0-17.066-7.646-17.066-17.066s7.628-17.066 17.066-17.066h119.466v-136.536h-119.466c-9.438 0-17.066-7.646-17.066-17.066s7.628-17.066 17.066-17.066h119.466v-136.534h-119.466c-9.438 0-17.066-7.646-17.066-17.066s7.628-17.066 17.066-17.066h119.466v-119.466h-170.666v631.464c0 9.42-7.628 17.066-17.066 17.066h-136.534c-9.438 0-17.066-7.646-17.066-17.066s7.628-17.066 17.066-17.066h119.466v-119.466h-119.466c-9.438 0-17.066-7.646-17.066-17.066s7.628-17.066 17.066-17.066h119.466v-136.536h-119.466c-9.438 0-17.066-7.646-17.066-17.066s7.628-17.066 17.066-17.066h119.466v-136.534h-119.466c-9.438 0-17.066-7.646-17.066-17.066s7.628-17.066 17.066-17.066h119.466v-119.466h-170.666v631.464c0 9.42-7.628 17.066-17.066 17.066h-136.534c-9.438 0-17.066-7.646-17.066-17.066s7.628-17.066 17.066-17.066h119.466v-119.466h-119.466c-9.438 0-17.066-7.646-17.066-17.066s7.628-17.066 17.066-17.066h119.466v-136.536h-119.466c-9.438 0-17.066-7.646-17.066-17.066s7.628-17.066 17.066-17.066h119.466v-136.534h-119.466c-9.438 0-17.066-7.646-17.066-17.066s7.628-17.066 17.066-17.066h119.466v-119.466h-170.666v631.464c0 9.42-7.628 17.066-17.066 17.066h-119.466c-47.054 0-85.334-38.28-85.334-85.332v-512c0-47.054 38.28-85.334 85.334-85.334h853.334c47.052 0 85.332 38.28 85.332 85.334v512c0 47.052-38.28 85.332-85.334 85.332zM187.734 465.066h-102.4c-9.438 0-17.066-7.646-17.066-17.066s7.628-17.066 17.066-17.066h102.4v-136.534h-102.4c-9.438 0-17.066-7.646-17.066-17.066s7.628-17.066 17.066-17.066h102.4v-136.534h-102.4c-9.438 0-17.066-7.646-17.066-17.066s7.628-17.066 17.066-17.066h102.4v-119.466h-102.4c-28.228 0-51.2 22.972-51.2 51.2v512c0 28.228 22.972 51.2 51.2 51.2h102.4v-119.47zM85.334 652.8l221.866-0.016c4.71 0 8.978 1.928 12.066 5.018 0.324 0.308 0.444 0.75 0.734 1.092 1.126 1.332 2.236 2.696 2.936 4.318 0.376 0.956 0.376 2.048 0.614 3.072 0.256 1.194 0.716 2.304 0.716 3.584 0 103.476 84.172 187.682 187.63 187.734 0.034 0 0.068-0.018 0.102-0.018s0.068 0.018 0.102 0.018c103.442-0.052 187.596-84.224 187.63-187.682 0-0.034-0.018-0.052-0.018-0.068 0-9.42 7.646-17.066 17.066-17.066l221.884 0.016c9.438 0 17.066 7.646 17.066 17.066s-7.646 17.066-17.066 17.066l-205.67-0.018c-2.134 27.99-9.506 54.476-21.128 78.61l133.836 77.296c8.158 4.71 10.956 15.156 6.246 23.312-4.728 8.174-15.19 10.956-23.312 6.246l-133.714-77.21c-15.496 22.562-35.038 42.104-57.582 57.6l47.104 81.63c4.728 8.158 1.928 18.586-6.246 23.312-8.14 4.694-18.602 1.912-23.312-6.246l-47.19-81.75c-24.15 11.622-50.62 19.012-78.626 21.146v52.072c-0.002 9.42-7.63 17.066-17.068 17.066s-17.066-7.646-17.066-17.066v-52.070c-27.99-2.134-54.46-9.524-78.61-21.128l-47.19 81.73c-4.728 8.158-15.206 10.94-23.312 6.246-8.174-4.728-10.974-15.156-6.246-23.312l47.104-81.612c-22.546-15.496-42.086-35.038-57.6-57.6l-133.718 77.174c-8.14 4.728-18.62 1.928-23.314-6.246-4.71-8.158-1.912-18.602 6.246-23.312l133.836-77.26c-11.606-24.132-18.978-50.62-21.128-78.61h-205.668c-9.42 0-17.066-7.646-17.066-17.066-0.002-9.422 7.628-17.068 17.066-17.068zM588.852 802.884c-8.226 4.744-18.602 1.946-23.312-6.212-4.744-8.158-1.946-18.602 6.212-23.33 19.098-11.060 34.782-27.152 45.312-46.54 3.106-5.7 8.978-8.926 15.018-8.926 2.748 0 5.546 0.682 8.14 2.082 8.278 4.506 11.35 14.866 6.844 23.142-13.552 24.9-33.69 45.584-58.214 59.784z" />
<glyph unicode="&#xe920;" glyph-name="solar-panel-2" d="M858.886 165.664l-37.626 376.252c-4.334 43.35-40.456 76.038-84.024 76.038h-149.018c-8.856 0-16.034-7.176-16.034-16.034s7.176-16.034 16.034-16.034h149.018c27.024 0 49.428-20.274 52.118-47.164l37.626-376.25c1.49-14.916-3.226-29.248-13.282-40.358-10.058-11.112-23.85-17.23-38.834-17.23h-635.526c-14.986 0-28.776 6.118-38.832 17.232-10.056 11.11-14.772 25.442-13.282 40.358l16.41 164.104c0.88 8.81-5.548 16.668-14.36 17.55-8.82 0.872-16.668-5.546-17.55-14.36l-16.41-164.104c-2.368-23.696 5.436-47.41 21.414-65.066s38.796-27.78 62.61-27.78h259.666l-9.196-119.556c-0.706-9.18 6.786-17.262 15.986-17.262h102.614c9.198 0 16.692 8.086 15.986 17.262l-9.196 119.556h259.664c23.812 0 46.632 10.124 62.61 27.78s23.782 41.372 21.414 65.066zM423.106-31.934l8.058 104.752h51.874l8.058-104.752h-67.99zM519.81 617.954h-342.844c-43.568 0-79.69-32.688-84.026-76.038l-14.518-145.192c-0.88-8.81 5.548-16.668 14.36-17.55 0.542-0.054 1.080-0.082 1.614-0.082 8.138 0 15.108 6.172 15.936 14.44l14.518 145.192c2.69 26.886 25.094 47.162 52.118 47.162h342.844c8.856 0 16.034 7.176 16.034 16.034s-7.18 16.034-16.036 16.034zM782.046 275.908h-126.428l-5.79 138.956h115.116c8.856 0 16.034 7.176 16.034 16.034 0 8.856-7.176 16.034-16.034 16.034h-116.452l-4.348 104.352c-0.368 8.848-7.82 15.738-16.688 15.352-8.848-0.368-15.722-7.84-15.352-16.688l4.292-103.016h-143.262v103.682c0 8.856-7.176 16.034-16.034 16.034-8.856 0-16.034-7.176-16.034-16.034v-103.682h-143.264l4.292 103.016c0.37 8.848-6.504 16.32-15.352 16.688-8.882 0.398-16.32-6.504-16.688-15.352l-4.346-104.352h-116.448c-8.856 0-16.034-7.176-16.034-16.034 0-8.856 7.176-16.034 16.034-16.034h115.116l-5.79-138.956h-126.428c-8.856 0-16.034-7.176-16.034-16.034 0-8.856 7.176-16.034 16.034-16.034h125.092l-4.292-103.016c-0.37-8.848 6.504-16.32 15.352-16.688 0.226-0.010 0.456-0.014 0.68-0.014 8.546 0 15.646 6.744 16.006 15.366l4.348 104.352h151.726v-103.682c0-8.856 7.176-16.034 16.034-16.034 8.856 0 16.034 7.176 16.034 16.034v103.682h151.726l4.348-104.352c0.36-8.62 7.458-15.366 16.006-15.366 0.224 0 0.454 0.004 0.68 0.014 8.848 0.368 15.722 7.84 15.352 16.688l-4.292 103.016h125.092c8.856 0 16.034 7.176 16.034 16.034-0.006 8.858-7.182 16.034-16.038 16.034zM441.068 275.908h-150.388l5.79 138.956h144.6v-138.956zM473.134 275.908v138.956h144.598l5.79-138.956h-150.388zM799.148 891.59c-55.99 0-101.544-45.554-101.544-101.544s45.554-101.544 101.544-101.544 101.544 45.554 101.544 101.544c0 55.99-45.554 101.544-101.544 101.544zM799.148 720.568c-38.312 0-69.478 31.166-69.478 69.478s31.166 69.478 69.478 69.478 69.478-31.166 69.478-69.478-31.168-69.478-69.478-69.478zM799.148 960c-8.856 0-16.034-7.176-16.034-16.034v-17.102c0-8.856 7.176-16.034 16.034-16.034s16.034 7.176 16.034 16.034v17.102c-0.002 8.858-7.178 16.034-16.034 16.034zM744.624 916.552l-8.552 14.81c-4.428 7.668-14.238 10.294-21.902 5.868-7.668-4.428-10.296-14.234-5.868-21.902l8.552-14.81c4.368-7.562 14.328-10.242 21.902-5.868 7.668 4.428 10.294 14.234 5.868 21.902zM688.676 872.34l-14.81 8.552c-7.666 4.428-17.474 1.804-21.902-5.868-4.428-7.668-1.8-17.474 5.868-21.902l14.81-8.552c7.574-4.374 17.534-1.694 21.902 5.868 4.426 7.668 1.8 17.474-5.868 21.902zM662.33 806.080h-17.102c-8.856 0-16.034-7.176-16.034-16.034 0-8.856 7.176-16.034 16.034-16.034h17.102c8.856 0 16.034 7.176 16.034 16.034-0.002 8.856-7.178 16.034-16.034 16.034zM694.544 729.654c-4.43 7.67-14.236 10.292-21.902 5.868l-14.81-8.552c-7.668-4.428-10.296-14.234-5.868-21.902 4.368-7.562 14.328-10.242 21.902-5.868l14.81 8.552c7.668 4.428 10.294 14.234 5.868 21.902zM738.756 685.444c-7.666 4.426-17.474 1.802-21.902-5.868l-8.552-14.81c-6.046-10.466 1.71-24.052 13.87-24.052 5.542 0 10.928 2.876 13.9 8.018l8.552 14.81c4.426 7.668 1.8 17.474-5.868 21.902zM799.148 669.26c-8.856 0-16.034-7.176-16.034-16.034v-17.102c0-8.856 7.176-16.034 16.034-16.034s16.034 7.176 16.034 16.034v17.102c-0.002 8.858-7.178 16.034-16.034 16.034zM889.994 664.766l-8.554 14.808c-4.428 7.67-14.238 10.292-21.902 5.868-7.668-4.428-10.296-14.234-5.868-21.902 2.802-4.854 5.548-9.75 8.412-14.57 5.952-10.006 20.568-11.166 27.308-1.204 3.406 5.034 3.64 11.738 0.604 17zM940.462 726.97l-14.81 8.552c-7.668 4.426-17.474 1.802-21.902-5.868-4.428-7.668-1.8-17.474 5.868-21.902l14.81-8.552c2.524-1.458 5.282-2.15 8.002-2.15 7.466 0 14.11 5.35 15.688 12.648 1.458 6.734-1.692 13.828-7.656 17.272zM953.068 806.080h-17.102c-8.856 0-16.034-7.176-16.034-16.034 0-8.856 7.176-16.034 16.034-16.034h17.102c8.856 0 16.034 7.176 16.034 16.034 0 8.856-7.18 16.034-16.034 16.034zM946.33 875.022c-4.428 7.67-14.238 10.294-21.902 5.868-4.636-2.676-9.274-5.356-13.91-8.032-7.504-4.334-11.27-13.198-7.328-21.362 2.656-5.496 8.354-9.078 14.46-9.078 2.72 0 5.48 0.692 8.002 2.15l14.81 8.552c7.668 4.428 10.296 14.234 5.868 21.902zM884.124 937.23c-7.666 4.428-17.474 1.802-21.902-5.868l-8.552-14.81c-4.43-7.668-1.8-17.474 5.868-21.902 7.574-4.374 17.534-1.694 21.902 5.868l8.552 14.81c4.428 7.67 1.8 17.476-5.868 21.902zM246.288 775.728c-5.67 5.668-11.534 11.532-12.45 16.124-0.926 4.626 3.498 12.104 12.45 21.060 6.262 6.264 6.262 16.414 0 22.676-6.264 6.26-16.414 6.26-22.676 0-41.266-41.268-14.422-68.112 0-82.534 5.668-5.666 11.532-11.526 12.448-16.122 0.926-4.626-3.498-12.104-12.45-21.060-5.836-5.838-6.226-15.48-0.85-21.756 5.994-7.004 17.006-7.438 23.528-0.922 41.266 41.268 14.422 68.112 0 82.534zM365.824 775.73c-5.67 5.668-11.534 11.532-12.45 16.124-0.926 4.626 3.498 12.104 12.45 21.060 6.262 6.264 6.262 16.414 0 22.676-6.264 6.26-16.414 6.26-22.676 0-41.266-41.268-14.422-68.112 0-82.534 5.67-5.668 11.534-11.53 12.45-16.124 0.926-4.626-3.498-12.104-12.45-21.060-6.262-6.264-6.262-16.414 0-22.676 6.178-6.176 16.498-6.176 22.676 0 41.266 41.268 14.422 68.112 0 82.534zM485.366 775.728c-5.67 5.668-11.534 11.532-12.45 16.124-0.926 4.626 3.498 12.104 12.45 21.060 6.262 6.264 6.262 16.414 0 22.676-6.264 6.26-16.414 6.26-22.676 0-41.266-41.268-14.422-68.112 0-82.534 5.668-5.666 11.532-11.526 12.448-16.122 0.926-4.626-3.498-12.104-12.45-21.060-5.836-5.838-6.226-15.48-0.85-21.756 5.994-7.004 17.006-7.438 23.528-0.922 41.264 41.268 14.42 68.112 0 82.534z" />
<glyph unicode="&#xe921;" glyph-name="tag-1" d="M984.678 393.724l-397.403 397.624c-20.986 20.986-49.040 32.694-78.641 32.694-2.43 0-4.86 0-7.29-0.221l-287.394-18.998c-31.147-1.988-56.33-27.171-58.318-58.318l-6.848-102.057c-14.58 8.394-28.496 18.998-41.088 31.589-30.706 30.706-49.703 68.922-53.679 107.801-3.755 36.891 6.848 69.805 29.822 92.779 48.82 48.82 138.727 37.995 200.801-23.858 10.382-10.382 27.171-10.382 37.553 0s10.382 27.171 0 37.553c-83.060 82.397-206.765 93-276.128 23.637-34.461-34.461-50.366-82.397-45.064-135.634 5.081-51.029 29.601-100.732 68.922-140.052 22.090-22.090 47.715-39.542 74.886-51.47l-8.394-127.903c-2.209-32.031 9.72-63.399 32.473-86.152l397.624-397.624c25.183-25.183 58.539-38.879 94.105-38.879v0c35.565 0 68.922 13.917 94.105 38.879l230.401 230.401c25.183 25.183 38.879 58.539 38.879 94.105-0.221 35.786-14.138 69.143-39.321 94.105zM947.346 243.289l-230.622-230.622c-15.021-15.021-35.124-23.416-56.551-23.416v0c-21.428 0-41.53 8.394-56.551 23.416l-397.624 397.624c-11.929 11.929-18.114 28.276-17.010 45.064l7.732 115.753c4.418-0.663 8.836-1.325 13.254-1.767 6.627-0.663 13.254-1.105 19.66-1.105 45.285 0 85.71 15.905 115.753 45.948 10.382 10.382 10.382 27.171 0 37.553s-27.171 10.382-37.553 0c-22.974-22.974-55.888-33.577-92.779-29.822-5.081 0.442-9.941 1.325-14.8 2.209l7.953 118.404c0.221 4.86 4.197 8.615 9.057 9.057l287.394 18.998c1.325 0 2.651 0.221 3.976 0.221 15.463 0 30.485-6.185 41.309-17.010l397.403-397.403c15.021-15.021 23.416-35.124 23.416-56.551s-8.394-41.53-23.416-56.551z" />
<glyph unicode="&#xe922;" glyph-name="tag-chevron-thin" d="M1010.531 479.834l-203.79 305.683c-10.4 15.476-27.841 25.523-47.628 25.523-0.021 0-0.042 0-0.063 0h-743.756c-10.551-0.001-19.104-8.554-19.104-19.105 0-3.95 1.199-7.619 3.251-10.665l-0.043 0.068 215.134-322.74c2.016-2.976 3.217-6.645 3.217-10.596s-1.202-7.623-3.262-10.667l0.043 0.067-215.132-322.657c-2.011-2.978-3.21-6.649-3.21-10.599 0-10.551 8.553-19.104 19.104-19.104 0.001 0 0.001 0 0.002 0h743.759c0.019 0 0.042 0 0.066 0 19.785 0 37.223 10.046 47.493 25.314l0.13 0.204 203.79 305.683c6.048 8.929 9.655 19.941 9.655 31.795s-3.607 22.865-9.784 31.996l0.129-0.202zM978.736 437.44l-203.788-305.683c-3.465-5.156-9.276-8.503-15.868-8.503-0.010 0-0.019 0-0.029 0h-708.057l195.327 292.954c6.049 8.929 9.658 19.94 9.658 31.793s-3.607 22.863-9.783 31.992l0.129-0.202-195.334 293.038h708.062c0.006 0 0.012 0 0.019 0 6.596 0 12.41-3.349 15.835-8.44l0.043-0.068 203.788-305.683c2.016-2.977 3.218-6.647 3.218-10.6s-1.202-7.623-3.261-10.667l0.043 0.067z" />
<glyph unicode="&#xe923;" glyph-name="up-arrow-1" d="M854.844 633.938l-320.007 316.807c-12.705 12.578-32.963 12.096-45.701 0l-320.007-316.838c-12.61-12.514-12.61-32.772 0-45.254 12.642-12.514 33.091-12.514 45.733 0l264.833 262.175v-882.826c0-17.667 14.467-32.003 32.325-32.003s32.325 14.339 32.325 32.003v882.861l264.833-262.175c12.61-12.514 33.091-12.514 45.701 0 12.607 12.479 12.607 32.74-0.035 45.251z" />
<glyph unicode="&#xe924;" glyph-name="down-arrow-1" d="M169.156 262.062l320.007-316.807c12.705-12.578 32.963-12.096 45.701 0l320.007 316.838c12.61 12.514 12.61 32.772 0 45.254-12.642 12.514-33.091 12.514-45.733 0l-264.833-262.175v882.826c0 17.667-14.467 32.003-32.325 32.003s-32.325-14.339-32.325-32.003v-882.861l-264.833 262.175c-12.61 12.514-33.091 12.514-45.701 0-12.607-12.479-12.607-32.74 0.035-45.251z" />
<glyph unicode="&#xe925;" glyph-name="left-arrow-1" d="M326.062 790.844l-316.807-320.007c-12.578-12.705-12.096-32.963 0-45.701l316.838-320.007c12.514-12.61 32.772-12.61 45.254 0 12.514 12.642 12.514 33.091 0 45.733l-262.175 264.833h882.826c17.667 0 32.003 14.467 32.003 32.325s-14.339 32.325-32.003 32.325h-882.861l262.175 264.833c12.514 12.61 12.514 33.091 0 45.701-12.479 12.607-32.74 12.607-45.251-0.035z" />
<glyph unicode="&#xe926;" glyph-name="right-arrow-1" d="M697.938 105.156l316.807 320.007c12.578 12.705 12.096 32.963 0 45.701l-316.838 320.007c-12.514 12.61-32.772 12.61-45.254 0-12.514-12.642-12.514-33.091 0-45.733l262.175-264.833h-882.826c-17.667 0-32.003-14.467-32.003-32.325s14.339-32.325 32.003-32.325h882.861l-262.175-264.833c-12.514-12.61-12.514-33.091 0-45.701 12.479-12.607 32.74-12.607 45.251 0.035z" />
<glyph unicode="&#xe927;" glyph-name="up-arrow-2" d="M1005.379 310.695l-465.464 349.089c-16.551 12.412-39.306 12.412-55.854 0l-465.439-349.089c-20.564-15.425-24.734-44.6-9.309-65.163 9.145-12.195 23.121-18.621 37.273-18.621 9.716 0 19.518 3.035 27.89 9.312l437.515 328.143 437.534-328.143c20.57-15.428 49.741-11.255 65.163 9.309 15.425 20.564 11.255 49.738-9.309 65.163z" />
<glyph unicode="&#xe928;" glyph-name="down-arrow-2" d="M18.621 585.305l465.464-349.089c16.551-12.412 39.306-12.412 55.854 0l465.439 349.089c20.564 15.425 24.734 44.6 9.309 65.163-9.145 12.195-23.121 18.621-37.273 18.621-9.716 0-19.518-3.035-27.89-9.312l-437.515-328.143-437.534 328.143c-20.57 15.428-49.741 11.255-65.163-9.309-15.425-20.564-11.255-49.738 9.309-65.163z" />
<glyph unicode="&#xe929;" glyph-name="left-arrow-2" d="M649.305 941.379l-349.089-465.464c-12.412-16.551-12.412-39.306 0-55.854l349.089-465.439c15.425-20.564 44.6-24.734 65.163-9.309 12.195 9.145 18.621 23.121 18.621 37.273 0 9.716-3.035 19.518-9.312 27.89l-328.143 437.515 328.143 437.534c15.428 20.57 11.255 49.741-9.309 65.163-20.564 15.425-49.738 11.255-65.163-9.309z" />
<glyph unicode="&#xe92a;" glyph-name="right-arrow-2" d="M374.695-45.379l349.089 465.464c12.412 16.551 12.412 39.306 0 55.854l-349.089 465.439c-15.425 20.564-44.6 24.734-65.163 9.309-12.195-9.145-18.621-23.121-18.621-37.273 0-9.716 3.035-19.518 9.312-27.89l328.143-437.515-328.143-437.534c-15.428-20.57-11.255-49.741 9.309-65.163 20.564-15.425 49.738-11.255 65.163 9.309z" />
<glyph unicode="&#xe92b;" glyph-name="user" d="M874.039 810.039c-96.703 96.703-225.281 149.961-362.039 149.961-136.766 0-265.336-53.258-362.039-149.961s-149.961-225.273-149.961-362.039c0-136.758 53.258-265.336 149.961-362.039s225.273-149.961 362.039-149.961c136.758 0 265.336 53.258 362.039 149.961s149.961 225.281 149.961 362.039c0 136.766-53.258 265.336-149.961 362.039zM256.68 75.227c21.414 123.297 128.258 214.242 255.32 214.242 127.070 0 233.906-90.945 255.32-214.242-72.695-49.945-160.648-79.227-255.32-79.227s-182.625 29.281-255.32 79.227zM349.203 512.266c0 89.773 73.031 162.797 162.797 162.797s162.797-73.031 162.797-162.797c0-89.766-73.031-162.797-162.797-162.797s-162.797 73.031-162.797 162.797zM819.289 116.844c-16.148 57.398-48.219 109.477-93.172 150.156-27.578 24.961-58.969 44.656-92.719 58.539 61 39.789 101.406 108.625 101.406 186.727 0 122.852-99.953 222.797-222.805 222.797s-222.797-99.945-222.797-222.797c0-78.102 40.406-146.937 101.398-186.727-33.742-13.883-65.141-33.57-92.719-58.531-44.945-40.68-77.023-92.758-93.172-150.156-88.945 82.602-144.711 200.477-144.711 331.148 0 249.234 202.766 452 452 452s452-202.766 452-452c0-130.68-55.766-248.555-144.711-331.156z" />
<glyph unicode="&#xe92d;" glyph-name="wind" d="M883.177 813.645c-100.449 145.021-182.37 129.611-328.028 40.176l-103.552-63.599-99.208 161.567c-2.482 4.033-6.498 6.86-11.134 7.842-4.619 1-9.445-0.017-13.357-2.689-144.417-100.036-128.887-181.904-39.418-327.58l63.134-102.81-205.638-126.268c-4.033-2.499-6.86-6.515-7.842-11.134-0.982-4.654 0-9.479 2.689-13.357 52.982-76.491 100.725-108.377 155.327-108.377 48.932 0 103.362 25.629 171.959 67.753l4.481 2.758v-332.992c0-34.248 22.406-68.925 65.909-68.925h0.017c54.723 2.103 54.723 48.932 54.723 68.925v358.673l77.629-126.423c2.482-4.033 6.498-6.86 11.134-7.842 1.172-0.259 2.361-0.362 3.55-0.362 3.482 0 6.911 1.069 9.807 3.068 117.426 81.353 157.292 154.81 49.311 330.665l-64.461 104.965 197.813 121.476c4.033 2.499 6.86 6.515 7.842 11.134 0.982 4.636 0.017 9.462-2.689 13.357zM528.572 658.473c7.135-1.086 13.978-3.413 20.234-6.894 1.224-0.689 2.465-1.362 3.637-2.12 1.551-1 3.033-2.12 4.481-3.257 1.517-1.206 2.947-2.499 4.343-3.861 1.034-1 2.103-1.982 3.068-3.068 2.327-2.637 4.533-5.412 6.412-8.463 0.672-1.086 1.12-2.241 1.62-3.378l1.224-2.706c0-0.017 0-0.034 0.017-0.052 4.86-10.358 6.549-21.423 5.429-32.076-0.034-0.259-0.069-0.5-0.103-0.758-0.379-3.223-1.017-6.394-1.913-9.514-0.207-0.689-0.483-1.344-0.707-2.034-0.896-2.758-1.913-5.481-3.189-8.083-0.414-0.81-0.931-1.551-1.379-2.344-1.31-2.378-2.671-4.757-4.326-6.946-0.827-1.086-1.827-2.034-2.706-3.051-1.517-1.758-2.964-3.55-4.705-5.153-2.792-2.551-5.826-4.878-9.117-6.894-3.102-1.913-6.36-3.43-9.686-4.722-0.931-0.362-1.896-0.655-2.844-0.982-2.482-0.827-4.998-1.482-7.549-1.982-1.086-0.207-2.172-0.448-3.275-0.603-2.827-0.396-5.688-0.534-8.566-0.517-0.655 0-1.31-0.086-1.965-0.069-0.069 0-0.138-0.017-0.207-0.017-0.138 0-0.259 0.052-0.396 0.052-0.086 0-0.155 0.034-0.224 0.034-4.567 0.241-8.997 1.12-13.288 2.344-1.103 0.31-2.154 0.741-3.24 1.12-3.257 1.12-6.412 2.499-9.41 4.154-1.051 0.586-2.103 1.172-3.12 1.827-2.913 1.844-5.619 3.964-8.187 6.291-0.827 0.758-1.724 1.431-2.516 2.241-3.171 3.223-6.084 6.722-8.497 10.651-0.672 1.086-1.138 2.275-1.637 3.413l-1.206 2.671c0 0 0 0 0 0-4.843 10.324-6.515 21.337-5.429 31.955 0.052 0.396 0.121 0.81 0.172 1.206 0.379 3.051 0.982 6.067 1.81 9.014 0.259 0.896 0.62 1.775 0.913 2.671 0.827 2.465 1.724 4.895 2.861 7.239 0.655 1.344 1.482 2.603 2.241 3.878 1.069 1.844 2.103 3.706 3.378 5.429s2.809 3.309 4.292 4.895c1.069 1.155 2.017 2.396 3.171 3.482 2.827 2.603 5.912 5.015 9.307 7.101 0.034 0.017 0.086 0.034 0.138 0.069 5.188 3.154 11.134 5.464 18.235 7.066 0.103 0.017 0.19 0.121 0.293 0.138 0.138 0.034 0.276 0 0.414 0.017 5.636 1.224 11.306 1.499 16.856 1.12 1.603-0.086 3.223-0.293 4.843-0.534zM317.849 647.408c-82.007 133.559-91.969 191.454 14.84 270.582l143.849-234.249c-2.31-1.138-4.55-2.361-6.722-3.706-0.017-0.017-0.052-0.017-0.069-0.034-5.119-3.154-9.738-6.808-14.047-10.72-1.431-1.31-2.671-2.74-4.016-4.136-2.671-2.74-5.205-5.55-7.48-8.566-1.396-1.827-2.654-3.706-3.912-5.619-1.81-2.775-3.43-5.636-4.929-8.583-1.138-2.223-2.258-4.429-3.223-6.739-1.103-2.689-1.965-5.446-2.809-8.221-0.845-2.689-1.792-5.326-2.378-8.083-0.259-1.206-0.293-2.43-0.517-3.654-1.551-8.721-1.948-17.614-1-26.526 0.017-0.103 0-0.207 0.017-0.31 0.5-4.671 1.517-9.255 2.723-13.857 0.121-0.431 0.138-0.862 0.259-1.293l-47.45-29.129-63.134 102.845zM450.064 364.536c-132.99-81.68-190.781-91.401-270.306 16.046l204.535 125.596c0 0 0.017 0 0.017 0.017l59.084 36.281c0.965-1.293 2.206-2.31 3.24-3.55 2.137-2.568 4.343-5.033 6.705-7.342 1.913-1.861 3.878-3.585 5.929-5.274 2.758-2.275 5.601-4.395 8.6-6.343 2.085-1.362 4.24-2.568 6.429-3.757 3.154-1.706 6.377-3.275 9.738-4.619 2.447-0.982 4.947-1.792 7.48-2.568 1.948-0.603 3.775-1.517 5.774-1.982 2.275-0.552 4.567-0.845 6.86-1.224 0.293-0.052 0.569-0.172 0.879-0.224l47.846-77.922-31.076-19.079-40.142-21.665c-3.12-1.689-5.481-4.292-7.032-7.308l-24.56-15.081zM558.769 4.916c0-28.319-3.43-33.782-20.906-34.472-29.921 0-30.8 30.938-30.8 34.472v354.158l32.145 19.734 19.562 10.548v-384.44zM690.586 270.982l-145.521 236.955c5.774 1.637 11.341 4.033 16.787 6.791 2.378 1.206 4.809 2.31 7.101 3.723 4.998 3.068 9.514 6.601 13.737 10.41 1.603 1.431 2.982 3.068 4.464 4.602 2.396 2.482 4.74 4.998 6.825 7.687 1.62 2.085 3.085 4.274 4.516 6.48 1.568 2.43 3.016 4.895 4.361 7.446 1.344 2.534 2.62 5.067 3.723 7.739 1 2.43 1.775 4.947 2.568 7.446 0.758 2.327 1.81 4.516 2.378 6.929 2.516 10.548 2.844 21.217 1.775 31.697-0.017 0.103 0 0.19-0.017 0.293-0.517 4.878-1.499 9.652-2.775 14.391-0.069 0.224-0.069 0.465-0.138 0.689l41.486 23.664 63.427-103.276c78.387-127.612 87.35-190.712-24.698-273.667zM595.292 655.956c-1.62 2.172-3.413 4.154-5.205 6.153-0.638 0.724-1.206 1.499-1.861 2.189-3.309 3.482-6.946 6.601-10.72 9.514-1.637 1.275-3.292 2.516-5.015 3.688-3.55 2.378-7.222 4.567-11.048 6.446-2.241 1.103-4.55 1.999-6.877 2.93-2.499 1-5.050 1.861-7.635 2.637-1.879 0.569-3.602 1.448-5.533 1.913-2.241 0.534-4.516 0.569-6.773 0.948-1.999 0.327-3.999 0.638-6.032 0.827-4.119 0.414-8.187 0.534-12.289 0.414-1.413-0.052-2.844-0.052-4.257-0.172l-41.659 67.856 102.81 63.134c133.576 82.025 191.54 91.832 271.047-15.581l-248.951-152.897z" />
<glyph unicode="&#xe92e;" glyph-name="wind-mill" d="M835.241 626.127c2.347-13.241-6.488-25.876-19.729-28.221-1.435-0.253-2.866-0.378-4.276-0.378-11.585 0-21.855 8.302-23.945 20.107-8.798 49.677-35.372 94.634-74.828 126.581-10.451 8.462-12.063 23.794-3.601 34.245 8.457 10.447 23.794 12.067 34.245 3.601 48.574-39.328 81.295-94.708 92.134-155.936zM113.301 891.048c38.888 20.425 67.31 6.655 110.465-17.51 28.852-16.158 62.874-35.215 103.638-35.212 14.869 0 30.639 2.535 47.379 8.673 12.624 4.628 19.108 18.614 14.479 31.24-4.626 12.626-18.611 19.105-31.242 14.481-41.598-15.254-73.516 2.616-110.46 23.307-43.43 24.318-92.649 51.89-156.907 18.129-11.903-6.254-16.483-20.974-10.229-32.879s20.977-16.483 32.877-10.229zM693.471 877.325c122.143-46.656 204.208-165.856 204.208-296.62 0-13.447 10.901-24.348 24.348-24.348s24.348 10.901 24.348 24.348c0 75.621-22.869 148.211-66.137 209.921-42.278 60.298-100.851 106.008-169.387 132.186-12.568 4.8-26.637-1.493-31.435-14.057-4.8-12.559 1.493-26.632 14.055-31.43zM113.301 792.827c38.888 20.427 67.31 6.655 110.465-17.51 28.852-16.16 62.872-35.215 103.638-35.212 14.869 0 30.639 2.535 47.379 8.673 12.624 4.628 19.108 18.616 14.479 31.24-4.626 12.626-18.611 19.108-31.242 14.481-41.61-15.256-73.518 2.616-110.462 23.307-43.43 24.323-92.649 51.892-156.907 18.134-11.903-6.254-16.483-20.974-10.229-32.879 6.256-11.91 20.979-16.487 32.879-10.233zM113.301 691.629c38.892 20.434 67.315 6.655 110.465-17.51 28.852-16.158 62.874-35.215 103.638-35.212 14.869 0 30.639 2.535 47.379 8.673 12.624 4.628 19.108 18.614 14.479 31.24-4.626 12.626-18.611 19.108-31.242 14.481-41.598-15.256-73.516 2.616-110.46 23.307-43.43 24.323-92.658 51.887-156.91 18.134-11.903-6.254-16.483-20.974-10.229-32.879 6.256-11.91 20.979-16.487 32.879-10.233zM1024-39.652c0-13.447-10.901-24.348-24.348-24.348h-975.304c-13.447 0-24.348 10.901-24.348 24.348s10.901 24.348 24.348 24.348h385.83v78.346c0 13.447 10.901 24.348 24.348 24.348h97.562v427.335l-10.382-5.994-48.147-98.566c-2.91-5.96-8.125-10.472-14.44-12.499l-214.353-68.764c-10.91-3.502-22.795 1.085-28.525 11.012l-17.818 30.867c-5.73 9.927-3.761 22.507 4.728 30.206l166.723 151.249c4.911 4.455 11.434 6.72 18.043 6.256l109.433-7.587 34.73 20.051v40.1l-61.288 90.979c-3.706 5.5-5.006 12.272-3.606 18.753l47.623 220.013c2.435 11.203 12.343 19.198 23.806 19.198h35.637c11.462 0 21.373-7.993 23.799-19.198l47.625-220.011c1.401-6.481 0.1-13.255-3.606-18.755l-61.288-90.979v-40.103l34.728-20.049 109.437 7.587c6.609 0.464 13.132-1.799 18.043-6.256l166.725-151.251c8.489-7.701 10.458-20.281 4.728-30.206l-17.818-30.864c-5.73-9.927-17.605-14.514-28.525-11.012l-214.353 68.762c-6.317 2.027-11.532 6.539-14.442 12.499l-48.145 98.564-10.386 5.997v-427.333h97.565c13.447 0 24.348-10.901 24.348-24.348v-78.346h296.954c13.456 0 24.358-10.901 24.358-24.348zM647.522 504.309l30.99-63.447 177.557-56.959-138.108 125.289-70.438-4.884zM465.353 504.309l-70.441 4.884-138.11-125.289 177.559 56.961 30.992 63.445zM556.437 662.072l39.451 58.559-39.451 182.248-39.451-182.248 39.451-58.559zM654.001 38.694h-195.127v-53.997h195.127v53.997z" />
<glyph unicode="&#xe92f;" glyph-name="wind-mill-1" d="M914.388 301.501l-236.218 236.221-4.292 118.007h46.407c5.328 0 10.126 3.23 12.128 8.168 2.002 4.94 0.809 10.597-3.014 14.309l-37.792 36.675 156.979 156.979c5.112 5.11 5.112 13.396 0 18.504l-65.807 65.803c-2.454 2.456-5.782 3.834-9.252 3.834s-6.798-1.378-9.252-3.834l-158.259-158.259-84.904 82.385c-5.075 4.927-13.149 4.927-18.224 0.002l-151.712-147.188-157.258 157.256c-2.454 2.456-5.782 3.834-9.252 3.834-3.472 0-6.798-1.378-9.254-3.834l-65.803-65.805c-5.11-5.11-5.11-13.396 0.002-18.504l237.35-237.35-6.105-167.565-165.441-165.441c-2.456-2.454-3.834-5.782-3.834-9.252 0-3.472 1.378-6.798 3.834-9.254l65.805-65.803c2.554-2.554 5.904-3.832 9.252-3.832s6.698 1.278 9.252 3.834l74.786 74.786-10.065-276.615c-0.131-3.551 1.191-7.001 3.658-9.559s5.867-4.002 9.42-4.002h348.958c3.553 0 6.953 1.444 9.42 4.002s3.786 6.009 3.658 9.559l-15.018 413.173 145.542-145.542c2.554-2.556 5.904-3.834 9.252-3.834s6.698 1.278 9.252 3.834l65.805 65.805c5.11 5.11 5.11 13.393-0.002 18.504zM650.99 564.899l-20.065 20.065c-5.108 5.112-13.398 5.112-18.504 0l-56.553-56.553-25.365 25.365 101.95 101.95h15.234l3.302-90.827zM428.555 655.726h50.963c0.393-0.537 0.816-1.056 1.293-1.531l56.551-56.549-25.365-25.365-83.442 83.445zM688.010 681.898h-29.384l14.473 14.473 14.911-14.473zM773.527 928.408l47.299-47.299-264.957-264.955-47.299 47.297 264.957 264.957zM512 852.667l75.508-73.268-97.499-97.499h-87.626l-32.697 32.697 142.314 138.070zM184.666 862.604l264.957-264.955-47.299-47.299-264.955 264.955 47.297 47.299zM372.231 543.433l20.844-20.844c2.554-2.556 5.904-3.834 9.252-3.834s6.698 1.278 9.252 3.834l56.551 56.551 25.365-25.365-125.459-125.459 4.196 115.117zM250.471 179.15l-47.299 47.297 264.957 264.955 47.297-47.297-264.955-264.955zM495.643-37.828v122.135h32.715v-122.135h-32.715zM672.909-37.828h-118.38v135.221c0 7.226-5.86 13.086-13.086 13.086h-58.887c-7.226 0-13.086-5.86-13.086-13.086v-135.221h-118.377l10.595 291.182 181.497 181.497c5.112 5.11 5.112 13.396 0 18.504l-56.551 56.551 25.365 25.365 145.361-145.361 15.548-427.738zM839.331 244.952l-264.955 264.955 47.299 47.299 264.955-264.955-47.299-47.299zM541.443 311.13h-58.887c-7.226 0-13.086-5.86-13.086-13.086v-58.887c0-7.226 5.86-13.086 13.086-13.086h58.887c7.226 0 13.086 5.86 13.086 13.086v58.887c0 7.228-5.86 13.086-13.086 13.086zM528.357 252.243h-32.715v32.715h32.715v-32.715z" />
<glyph unicode="&#xe930;" glyph-name="wind-mill-ecological-generator" d="M542.389-64l-25.017 547.308h-27.207l-21.345-547.308zM521.362 642.207c13.135 0 23.799 13.965 23.799 27.1l-23.269 261.934c0 13.135-0.087 28.76-13.223 28.76h-3.179c-13.135 0-14.283-15.625-14.283-28.76l-22.209-261.934c0-13.135 10.646-27.1 23.801-27.1h28.564zM802.997 365.479c11.069-7.079 24.275-15.413 31.354-4.344l1.713 2.666c7.081 11.070-5.472 20.444-16.561 27.506l-208.808 159.691c-11.069 7.079-28.582 5.615-35.646-5.472l-15.359-24.065c-7.079-11.070-1.041-27.56 10.046-34.64l233.262-121.342zM220.996 365.479l233.277 121.379c11.070 7.081 17.11 23.57 10.029 34.64l-15.359 24.065c-7.079 11.070-24.576 12.536-35.645 5.472l-208.808-159.708c-11.070-7.081-23.623-16.438-16.561-27.506l1.713-2.666c7.077-11.087 20.283-2.755 31.354 4.324zM542.212 567.172c0-20.213-16.386-36.599-36.599-36.599s-36.599 16.386-36.599 36.599c0 20.213 16.386 36.599 36.599 36.599s36.599-16.386 36.599-36.599z" />
</font>
</defs>
</svg>
